<?xml version="1.0" encoding="UTF-8"?>
<svg version="1.1" xmlns="http://www.w3.org/2000/svg" width="1181" height="645">
<path d="M0 0 C389.73 0 779.46 0 1181 0 C1181 212.85 1181 425.7 1181 645 C791.27 645 401.54 645 0 645 C0 432.15 0 219.3 0 0 Z " fill="#010101" transform="translate(0,0)"/>
<path d="M0 0 C0.86840515 -0.00404846 1.7368103 -0.00809692 2.63153076 -0.01226807 C5.62054316 -0.01840037 8.60872589 0.00128672 11.59765625 0.0234375 C12.65449615 0.02676086 13.71133606 0.03008423 14.80020142 0.0335083 C39.99113991 0.12323027 65.17148924 0.97185756 90.34765625 1.7734375 C91.34699566 1.80504219 92.34633507 1.83664688 93.37595749 1.86920929 C115.33875349 2.56567708 137.29414724 3.36755948 159.2421875 4.4375 C160.09979864 4.47831066 160.95740978 4.51912132 161.84100914 4.56116867 C164.24425992 4.67662556 166.64716986 4.79748378 169.05004883 4.92041016 C169.75200441 4.9538364 170.45396 4.98726265 171.17718697 5.02170181 C174.75635847 5.2123899 178.16699407 5.58721312 181.66015625 6.3984375 C180.30247126 10.25206865 178.54523742 13.06333369 176.03515625 16.2734375 C151.61285547 49.32318149 146.39302406 94.53350204 151.58642578 134.40600586 C152.15936738 138.10332618 152.86825892 141.74097682 153.66015625 145.3984375 C153.86511719 146.37941406 154.07007813 147.36039063 154.28125 148.37109375 C154.94598478 151.10847984 155.75854865 153.72897186 156.66015625 156.3984375 C156.88687012 157.07696777 157.11358398 157.75549805 157.34716797 158.45458984 C164.4489946 179.44799951 174.67635904 198.7357985 190.66015625 214.3984375 C191.38074219 215.15382813 192.10132813 215.90921875 192.84375 216.6875 C199.58498043 223.6740785 206.85177631 229.64938763 214.66015625 235.3984375 C215.52785645 236.04063232 215.52785645 236.04063232 216.41308594 236.69580078 C231.93078388 248.01823114 249.10374426 255.65052825 267.66015625 260.3984375 C268.74554687 260.7284375 269.8309375 261.0584375 270.94921875 261.3984375 C281.60114611 264.26885161 291.88161549 264.76433914 302.84765625 264.7109375 C304.03743576 264.70770477 304.03743576 264.70770477 305.25125122 264.70440674 C325.77936678 264.61515743 344.82943205 262.35116202 364.44042969 256.09326172 C366.37834457 255.48665088 368.33461339 254.93931216 370.29296875 254.40234375 C403.71849659 245.1631008 428.38775679 220.98714036 445.28515625 191.6484375 C456.5567393 171.46771226 463.86853786 149.18972488 466.78515625 126.2734375 C466.95273438 124.97148437 467.1203125 123.66953125 467.29296875 122.328125 C467.41414063 121.36132812 467.5353125 120.39453125 467.66015625 119.3984375 C467.99015625 119.3984375 468.32015625 119.3984375 468.66015625 119.3984375 C468.66015625 263.2784375 468.66015625 407.1584375 468.66015625 555.3984375 C187.50015625 555.3984375 -93.65984375 555.3984375 -383.33984375 555.3984375 C-383.33984375 555.0684375 -383.33984375 554.7384375 -383.33984375 554.3984375 C-382.24929688 554.30046875 -381.15875 554.2025 -380.03515625 554.1015625 C-368.89850644 553.02603332 -358.19059067 551.10831897 -347.33984375 548.3984375 C-346.39625 548.17414062 -345.45265625 547.94984375 -344.48046875 547.71875 C-336.9494504 545.72524514 -330.19118354 542.01420686 -323.33984375 538.3984375 C-322.37691406 537.90085937 -321.41398437 537.40328125 -320.421875 536.890625 C-285.36269191 518.37451965 -259.91262713 487.95422994 -245.33984375 451.3984375 C-244.93894531 450.39554688 -244.53804687 449.39265625 -244.125 448.359375 C-231.91764209 414.91582088 -237.29547977 377.47647702 -251.96484375 345.8984375 C-259.32308516 330.59750007 -268.89515446 316.90620388 -280.33984375 304.3984375 C-281.17644531 303.47933594 -282.01304687 302.56023437 -282.875 301.61328125 C-294.6444041 289.27582145 -308.59213077 279.7990335 -323.33984375 271.3984375 C-325.26016382 270.27968509 -327.17731389 269.1554559 -329.08984375 268.0234375 C-329.8478125 267.58257812 -330.60578125 267.14171875 -331.38671875 266.6875 C-335.06484375 264.2599375 -335.06484375 264.2599375 -336.33984375 262.3984375 C-336.43494876 259.30752456 -336.05422483 257.3031878 -334.11035156 254.84130859 C-332.45600228 253.17387939 -330.73953737 251.62462353 -328.96484375 250.0859375 C-328.01363647 249.234552 -328.01363647 249.234552 -327.04321289 248.3659668 C-321.61195566 243.53977607 -316.03718368 238.90653385 -310.33984375 234.3984375 C-309.46473145 233.69565674 -308.58961914 232.99287598 -307.68798828 232.26879883 C-297.79850908 224.47282838 -287.32289069 217.64232049 -276.77734375 210.7734375 C-272.8616806 208.21858889 -268.94769103 205.66119931 -265.03515625 203.1015625 C-264.05523209 202.46094879 -263.07530792 201.82033508 -262.06568909 201.16030884 C-255.5733916 196.90232836 -249.15426642 192.55008074 -242.76953125 188.1328125 C-240.33548666 186.46135037 -237.90048415 184.79129145 -235.46536255 183.12139893 C-233.93505162 182.06417543 -232.41055784 180.998477 -230.89230347 179.92401123 C-228.79136501 178.43791101 -226.67209018 176.98232691 -224.546875 175.53125 C-223.94555756 175.09319031 -223.34424011 174.65513062 -222.72470093 174.20379639 C-218.33222496 171.26337165 -215.27561213 171.1325235 -210.26312256 171.89935303 C-207.71506525 172.56056545 -206.44538806 173.49633188 -204.77734375 175.5234375 C-202.54743038 178.04222601 -200.36386253 180.30733182 -197.77734375 182.4609375 C-193.76242725 185.91235695 -190.06117724 189.63783391 -186.33984375 193.3984375 C-182.10917053 197.67361484 -177.85589442 201.80793308 -173.26171875 205.6953125 C-169.94484728 208.63465388 -166.89091617 211.84064469 -163.77734375 214.9921875 C-161.6898374 217.05293095 -159.56815152 218.99359376 -157.33984375 220.8984375 C-153.26501025 224.38176292 -149.54691383 228.17662458 -145.78125 231.98828125 C-143.06781648 234.66698282 -140.23207352 237.14451868 -137.3359375 239.62109375 C-134.27454735 242.34698909 -131.44019211 245.28985108 -128.5625 248.20703125 C-125.91282935 250.81944818 -123.12811572 253.23146371 -120.3046875 255.65234375 C-117.52559861 258.1220311 -114.95123879 260.77747072 -112.34375 263.42578125 C-109.75738224 265.97181579 -107.02449095 268.31865307 -104.2734375 270.68359375 C-101.77336015 272.90083406 -99.45513124 275.27059312 -97.1171875 277.65625 C-95.2803671 279.45673768 -93.36567689 281.11245001 -91.40234375 282.7734375 C-88.44179954 285.36318948 -85.58287229 288.01550428 -82.83984375 290.8359375 C-82.16953125 291.51527344 -81.49921875 292.19460938 -80.80859375 292.89453125 C-78.75072883 296.4027531 -78.75465878 299.48395207 -79.33984375 303.3984375 C-80.17698214 306.2958241 -81.32461879 309.01087078 -82.52734375 311.7734375 C-97.82230752 349.01907623 -101.0940421 393.47777306 -85.82421875 431.36328125 C-84.43189347 434.44471693 -82.94663713 437.42398186 -81.33984375 440.3984375 C-80.61474609 441.78482422 -80.61474609 441.78482422 -79.875 443.19921875 C-78.40432914 445.95721423 -76.87880351 448.67805409 -75.33984375 451.3984375 C-74.829375 452.34203125 -74.31890625 453.285625 -73.79296875 454.2578125 C-69.1244541 462.66113888 -63.42540255 469.99851533 -57.33984375 477.3984375 C-56.90397949 477.93654053 -56.46811523 478.47464355 -56.01904297 479.02905273 C-52.48034517 483.35822509 -48.61015496 486.82159563 -44.33984375 490.3984375 C-43.51355469 491.11257813 -42.68726563 491.82671875 -41.8359375 492.5625 C-27.41502926 504.7793393 -10.1917302 514.22229586 7.66015625 520.3984375 C8.32426514 520.63272461 8.98837402 520.86701172 9.67260742 521.10839844 C23.30506007 525.81267128 37.73096956 529.1762504 52.18505859 529.35449219 C55.18562905 529.40776726 58.18099827 529.53761678 61.1796875 529.65625 C101.74767103 530.86539306 136.1116137 516.67551505 165.66015625 489.3984375 C168.1975144 486.86589407 170.43945792 484.210009 172.66015625 481.3984375 C173.49933594 480.38394531 174.33851563 479.36945313 175.203125 478.32421875 C203.29822961 443.9901243 216.01240795 400.5097402 212.19921875 356.40625 C208.38218845 319.26047061 193.68252511 281.51847835 164.53515625 256.8984375 C130.33916954 229.99633161 86.699117 217.49265774 43.3203125 221.859375 C19.05766825 224.86777125 -4.56559562 233.40296871 -25.30541992 246.29980469 C-30.25583033 249.25840014 -33.55807457 250.30092917 -39.33984375 249.3984375 C-41.81946083 247.69294477 -43.54750822 246.2687868 -45.58984375 244.1484375 C-46.13922607 243.61065674 -46.6886084 243.07287598 -47.25463867 242.51879883 C-48.96993439 240.83099103 -50.65597212 239.11754271 -52.33984375 237.3984375 C-53.41277563 236.32293342 -54.4869636 235.24868073 -55.5625 234.17578125 C-57.10113302 232.63907453 -58.63773112 231.10071977 -60.16650391 229.55419922 C-63.43378485 226.25645412 -66.81409346 223.17760269 -70.34765625 220.171875 C-73.68031226 217.20515769 -76.75986026 213.98551559 -79.89453125 210.8125 C-82.63107854 208.11092456 -85.48963741 205.60765015 -88.41015625 203.109375 C-91.18091957 200.65270631 -93.74277275 198.00483773 -96.33984375 195.3671875 C-98.27875377 193.45857295 -100.27683926 191.67133198 -102.33984375 189.8984375 C-105.12880768 187.50167162 -107.7597516 185.01884359 -110.33984375 182.3984375 C-112.89974509 179.79861567 -115.50763915 177.33575352 -118.27734375 174.9609375 C-122.00601248 171.75763892 -125.44923672 168.33183244 -128.87109375 164.8046875 C-130.89795311 162.82914104 -132.95563818 160.97195341 -135.09375 159.12109375 C-139.45915392 155.32823522 -143.64655331 151.38203326 -147.77734375 147.3359375 C-148.85532227 146.3140332 -148.85532227 146.3140332 -149.95507812 145.27148438 C-152.99316775 142.28503367 -155.0648175 140.19591846 -156.46875 136.125 C-156.22978719 131.07057455 -152.88073254 128.73200152 -149.33984375 125.3984375 C-144.43680671 120.95227093 -139.39158068 116.67375478 -134.33984375 112.3984375 C-131.9412734 110.35996747 -129.54573052 108.31799057 -127.15234375 106.2734375 C-126.57846924 105.78367432 -126.00459473 105.29391113 -125.41333008 104.78930664 C-120.50670284 100.58272967 -115.74406812 96.23177406 -111 91.84375 C-108.82763129 89.84682957 -106.63445212 87.89015016 -104.40234375 85.9609375 C-99.1594821 81.41278216 -94.10208649 76.66128807 -89.01123047 71.94482422 C-82.02348539 65.47968 -74.98739776 59.0693193 -67.90234375 52.7109375 C-65.03383966 50.12228747 -62.18507725 47.51258604 -59.33984375 44.8984375 C-54.88919528 40.80926302 -50.40906292 36.75474666 -45.91015625 32.71875 C-42.99555848 30.08763894 -40.10450598 27.43185448 -37.21484375 24.7734375 C-33.3047826 21.17864427 -29.36233918 17.62951914 -25.34375 14.15625 C-22.08810945 11.30042496 -18.9149106 8.35310347 -15.734375 5.4140625 C-10.54308877 1.04423592 -6.74411943 -0.05065086 0 0 Z " fill="#FEFEFE" transform="translate(712.33984375,89.6015625)"/>
<path d="M0 0 C11.40152456 -0.13150715 22.67515313 0.22054663 34.046875 1.0234375 C35.63458969 1.1312423 37.22233891 1.23853953 38.81011963 1.34536743 C42.95513112 1.62560221 47.09964317 1.91263436 51.24407959 2.20123291 C55.36946636 2.48729804 59.49529749 2.76678938 63.62109375 3.046875 C75.20837051 3.83522711 86.79494455 4.63370633 98.38047218 5.44737625 C100.38022629 5.58773854 102.38002362 5.72748464 104.37982178 5.86721802 C106.77115086 6.0344827 109.16239549 6.20296223 111.55352783 6.37301636 C120.50529992 6.99876656 129.45878384 7.42086997 138.42578125 7.75390625 C141.30295549 7.88049 144.11939805 8.11140593 146.97265625 8.5 C152.50242564 9.24983425 158.06455247 9.33992741 163.63671875 9.51757812 C170.08675646 9.76637871 176.48635789 10.30692415 182.90966797 10.91796875 C194.96929581 12.03742233 207.04098183 12.88552893 219.125 13.69140625 C221.3725691 13.84293815 223.62012746 13.99462932 225.86767578 14.14646912 C230.539929 14.46153394 235.21229908 14.77478516 239.88476562 15.08666992 C245.80782104 15.48216418 251.73056523 15.88211782 257.65322876 16.28343296 C262.28283989 16.59664588 266.91260599 16.90751899 271.54241943 17.21772575 C273.72365941 17.36412907 275.90485446 17.51120378 278.08599854 17.65902901 C281.15874367 17.86691434 284.23164805 18.07214854 287.3046875 18.27563477 C288.27870514 18.34047341 289.25272278 18.40531206 290.2562561 18.47211552 C295.21814963 18.79227497 300.17678366 19.05965722 305.14550781 19.24850464 C306.14091583 19.28710319 307.13632385 19.32570173 308.16189575 19.36546993 C310.03797845 19.4344533 311.91436085 19.49589685 313.79098511 19.54811192 C318.86268501 19.73152787 323.18313375 20.38228708 328 22 C327.75 23.875 327.75 23.875 327 26 C324.9375 27.25 324.9375 27.25 323 28 C323 28.66 323 29.32 323 30 C321.35 30.66 319.7 31.32 318 32 C318 32.66 318 33.32 318 34 C316.20035241 35.51922305 314.39522996 36.92062211 312.5 38.3125 C307.23640751 42.2631251 302.08877872 46.3266857 297 50.5 C291.19447984 55.24940664 285.30890179 59.85856002 279.34375 64.40625 C275.50112493 67.36211544 271.75262972 70.43124411 268 73.5 C262.22328966 78.22049525 256.38636144 82.832472 250.453125 87.35546875 C247.90705744 89.29785265 245.379753 91.26267845 242.859375 93.23828125 C233.55243562 100.53077161 224.13473712 107.64173437 214.59375 114.625 C210.32397232 117.75236225 206.09688497 120.93346847 201.875 124.125 C195.83231791 128.68107402 189.69539056 133.08547035 183.49780273 137.42797852 C178.27404947 141.08966584 173.09872512 144.81330817 167.9375 148.5625 C161.73901378 153.0574639 155.48661159 157.45844109 149.1640625 161.77685547 C143.89543827 165.37648059 138.66134865 169.0232307 133.4375 172.6875 C126.13613126 177.80778443 118.8229613 182.91064304 111.5 188 C100.98402396 195.31060451 90.48251261 202.64148809 80 210 C79.26587891 210.5151416 78.53175781 211.0302832 77.77539062 211.56103516 C69.87224351 217.11069775 62.00622678 222.70697827 54.1875 228.375 C47.48539427 233.22585065 40.75881229 238.0409304 34 242.8125 C33.13270264 243.4297998 32.26540527 244.04709961 31.37182617 244.68310547 C30.56849854 245.24787598 29.7651709 245.81264648 28.9375 246.39453125 C28.22464844 246.89831299 27.51179688 247.40209473 26.77734375 247.92114258 C25 249 25 249 23 249 C23 249.66 23 250.32 23 251 C18.61538462 254 18.61538462 254 16 254 C16 254.66 16 255.32 16 256 C14.38256349 257.19469742 12.70109405 258.30276784 11 259.375 C5.97547421 262.64035341 1.1471643 266.06452909 -3.625 269.6875 C-9.33926689 274.02011449 -15.10803038 278.26120108 -20.9375 282.4375 C-29.02301779 288.245773 -36.95801515 294.2301156 -44.83056641 300.32324219 C-47.07404525 302.05722966 -49.32385534 303.78277202 -51.57421875 305.5078125 C-84.10046885 330.51425753 -109.55696812 358.68191271 -118 400 C-118.3403125 401.64548828 -118.3403125 401.64548828 -118.6875 403.32421875 C-120.14530303 412.04066605 -120.20306879 420.74222688 -120.25 429.5625 C-120.26401855 431.3727063 -120.26401855 431.3727063 -120.27832031 433.21948242 C-120.24860919 441.637442 -119.36233444 449.7001472 -118 458 C-117.73509766 459.918125 -117.73509766 459.918125 -117.46484375 461.875 C-113.79844311 483.6018186 -102.61735585 506.5352178 -88 523 C-83 528.79075426 -83 528.79075426 -83 531 C-82.42378906 531.2475 -81.84757813 531.495 -81.25390625 531.75 C-78.6629194 533.18694245 -76.97955193 534.85958333 -74.9375 537 C-72.66346144 539.37442798 -70.75478071 541.16347952 -68 543 C-68 543.66 -68 544.32 -68 545 C-66.91525391 545.38285156 -66.91525391 545.38285156 -65.80859375 545.7734375 C-62.82617081 547.07591428 -60.6332781 548.63650908 -58.0625 550.625 C-30.57138614 570.99425483 3.12349337 580.16354305 37 581 C37 581.33 37 581.66 37 582 C-68.27 582 -173.54 582 -282 582 C-282 425.58 -282 269.16 -282 108 C-281.67 108 -281.34 108 -281 108 C-280.84144531 109.10214844 -280.68289063 110.20429688 -280.51953125 111.33984375 C-274.80878655 149.25260898 -257.46891964 184.88175729 -226.40063477 208.41894531 C-198.52955523 228.85415687 -168.18392691 241.19830944 -133.4375 241.3125 C-132.26223755 241.31692612 -132.26223755 241.31692612 -131.06323242 241.32144165 C-118.33052872 241.33235521 -106.34427902 240.30605301 -94 237 C-93.1339917 236.77675049 -92.2679834 236.55350098 -91.37573242 236.32348633 C-53.29446514 226.29220864 -17.70891896 206.35018552 3.24316406 171.95947266 C14.61057127 152.43357295 20.30525704 132.12394281 24 110 C24.17345947 109.05471436 24.34691895 108.10942871 24.52563477 107.13549805 C29.14916478 76.57451198 22.31532651 44.92994077 8.02001953 17.93457031 C6.30661012 14.6849159 4.65275327 11.40579407 3 8.125 C2.13375 6.42730469 2.13375 6.42730469 1.25 4.6953125 C0 2 0 2 0 0 Z " fill="#FEFEFE" transform="translate(282,63)"/>
<path d="M0 0 C1.0828125 0.51820312 2.165625 1.03640625 3.28125 1.5703125 C9.84875221 4.9463038 15.37973375 9.24215391 21 14 C21.60328125 14.45761719 22.2065625 14.91523437 22.828125 15.38671875 C37.3141587 26.6573945 48.43977972 47.20137229 51.64111328 65.109375 C55.33740742 94.88088698 50.02717449 124.51429507 31.84375 148.890625 C29.63148171 151.66353662 27.35342334 154.34622718 25 157 C24.07960938 158.04607422 24.07960938 158.04607422 23.140625 159.11328125 C4.1639522 179.34695588 -23.92326925 189.72961973 -51.109375 191.1640625 C-75.01116838 191.78124496 -99.55131978 185.41895711 -117.6875 169.25 C-119.13976819 167.84847662 -120.57995399 166.43416178 -122 165 C-122.86625 164.175 -123.7325 163.35 -124.625 162.5 C-125.40875 161.675 -126.1925 160.85 -127 160 C-127.59167969 159.3915625 -128.18335938 158.783125 -128.79296875 158.15625 C-148.34830693 137.27704946 -154.92080598 109.53514454 -154.13183594 81.65820312 C-153.01479584 59.135365 -144.16228898 35.73759174 -129 19 C-128.27425781 18.18144531 -127.54851563 17.36289063 -126.80078125 16.51953125 C-112.36410429 1.12836325 -94.25824273 -6.45935939 -74 -11 C-73.4033252 -11.1757959 -72.80665039 -11.3515918 -72.19189453 -11.53271484 C-48.1354045 -16.66126485 -21.60775964 -10.37548613 0 0 Z " fill="#FEFEFE" transform="translate(1074,110)"/>
<path d="M0 0 C332.97 0 665.94 0 1009 0 C1009 60.39 1009 120.78 1009 183 C1008.67 183 1008.34 183 1008 183 C1007.90203125 181.78828125 1007.8040625 180.5765625 1007.703125 179.328125 C1004.41267594 141.36552549 993.38172792 106.7171917 964 81 C959.91165894 77.62096149 955.54744069 74.72083234 951 72 C950.39945801 71.63600098 949.79891602 71.27200195 949.18017578 70.89697266 C918.7958185 52.81980673 883.65645473 47.1521745 849 44 C847.63501877 43.87467896 847.63501877 43.87467896 846.24246216 43.74682617 C828.36197178 42.14381535 810.48715264 41.49339928 792.54864502 41.05212402 C786.28090625 40.89737399 780.01343094 40.73269174 773.74609375 40.5625 C773.02666029 40.54304258 772.30722683 40.52358517 771.56599236 40.50353813 C755.11754444 40.05214449 738.67984505 39.36024407 722.23986816 38.67313862 C721.18481079 38.62905463 720.12975342 38.58497065 719.04272461 38.53955078 C717.44536469 38.47277901 717.44536469 38.47277901 715.81573486 38.40465832 C696.8402951 37.61507421 677.86140442 36.91059361 658.88305664 36.19506836 C654.30912491 36.02256467 649.73523425 35.84902669 645.16137695 35.67456055 C610.98537965 34.35848139 610.98537965 34.35848139 576.79957581 33.33921814 C568.01493713 33.10751318 559.2677398 32.63911191 550.5 32.0625 C536.79667208 31.17809359 523.09696769 30.57785604 509.375 30.0625 C490.90751932 29.36286084 472.45351715 28.50316111 454 27.5 C452.88115417 27.44014923 451.76230835 27.38029846 450.60955811 27.31863403 C436.33473678 26.55137589 422.08682634 25.58096534 407.8359375 24.45507812 C400.72806181 23.89503951 393.61743388 23.42297508 386.5 23 C385.84863068 22.96053253 385.19726135 22.92106506 384.52615356 22.88040161 C375.63368707 22.34309923 366.73877825 21.88115989 357.83984375 21.46484375 C356.89263458 21.42050201 355.94542542 21.37616028 354.96951294 21.33047485 C350.30024019 21.11330285 345.63078937 20.90160324 340.9609375 20.69726562 C339.24348924 20.61979925 337.52604131 20.54232564 335.80859375 20.46484375 C334.64963844 20.41649635 334.64963844 20.41649635 333.4672699 20.36717224 C329.92795183 20.20541793 326.4395695 19.96042868 322.92602539 19.49780273 C319.06406472 19.00812312 315.26289907 18.75000122 311.375 18.5703125 C309.87100889 18.4980379 308.36702144 18.42568712 306.86303711 18.35327148 C306.07234833 18.31628143 305.28165955 18.27929138 304.4670105 18.24118042 C288.68849282 17.49811313 272.91930478 16.61236257 257.15356445 15.63641357 C255.01691775 15.50426198 252.88019886 15.37327237 250.7434082 15.24346924 C247.73366768 15.06019657 244.72422937 14.87259452 241.71484375 14.68359375 C240.81958481 14.6294783 239.92432587 14.57536285 239.00193787 14.51960754 C238.1659053 14.46600571 237.32987274 14.41240387 236.46850586 14.35717773 C235.74674667 14.31213608 235.02498749 14.26709442 234.28135681 14.22068787 C232 14 232 14 229.11227417 13.50099182 C225.96500126 12.99436615 222.91873516 12.77030146 219.73510742 12.62695312 C218.51752243 12.57019409 217.29993744 12.51343506 216.04545593 12.45495605 C214.74526016 12.39763306 213.44506439 12.34031006 212.10546875 12.28125 C210.74878391 12.21826087 209.39212007 12.15481797 208.03547668 12.09094238 C203.02262672 11.85575552 198.00947191 11.62741397 192.99621582 11.40106201 C188.74538579 11.20911428 184.49475804 11.01353831 180.24434853 10.81248474 C178.24967133 10.71964377 176.25473997 10.63231694 174.2598114 10.54504395 C173.05798721 10.48828491 171.85616302 10.43152588 170.61791992 10.37304688 C169.55457932 10.32498901 168.49123871 10.27693115 167.39567566 10.22741699 C165 10 165 10 164 9 C162.07562036 8.82245073 160.14505271 8.7116224 158.21435547 8.62695312 C156.97571747 8.57019409 155.73707947 8.51343506 154.46090698 8.45495605 C153.79429928 8.42667221 153.12769157 8.39838837 152.44088364 8.36924744 C150.35516169 8.28073968 148.2697632 8.18657686 146.18435669 8.09094238 C142.50138916 7.92299747 138.81821636 7.76015376 135.13494873 7.59893799 C129.26062674 7.34176684 123.38651025 7.08040549 117.51266861 6.81248474 C115.46615402 6.720391 113.41948633 6.63257432 111.37277222 6.54504395 C110.11522125 6.48828491 108.85767029 6.43152588 107.56201172 6.37304688 C106.46138397 6.32498901 105.36075623 6.27693115 104.22677612 6.22741699 C100.7829693 5.98470409 97.41609753 5.49315454 94 5 C92.0091549 4.84808047 90.01601026 4.72382471 88.02172852 4.62695312 C86.31405556 4.54177681 86.31405556 4.54177681 84.57188416 4.45487976 C83.35320145 4.39758194 82.13451874 4.34028412 80.87890625 4.28125 C79.59734146 4.21867508 78.31577667 4.15610016 76.99537659 4.09162903 C73.55806449 3.92426897 70.12055149 3.76146784 66.68296051 3.59994888 C64.563067 3.50002673 62.44323867 3.39881768 60.32342529 3.29721069 C40.22154804 2.3347941 20.12084438 1.45512032 0 1 C0 0.67 0 0.34 0 0 Z " fill="#FDFDFD" transform="translate(172,0)"/>
<path d="M0 0 C1.16934082 -0.00855011 1.16934082 -0.00855011 2.36230469 -0.01727295 C4.00958925 -0.02668483 5.65689231 -0.0332417 7.30419922 -0.03710938 C9.77737059 -0.04673823 12.24968213 -0.07776519 14.72265625 -0.109375 C38.79964144 -0.27192247 62.97396381 7.14456715 80.68969727 24.00805664 C99.33795614 42.42978023 107.35322593 65.28913891 108.125 91.328125 C107.62088506 116.94346518 100.00427074 143.96341157 83.8125 164.203125 C83.1525 164.203125 82.4925 164.203125 81.8125 164.203125 C81.56371094 164.77546875 81.31492188 165.3478125 81.05859375 165.9375 C73.11882684 180.37343984 53.7320314 190.11008682 38.41015625 194.55859375 C9.77611357 202.1683223 -19.45875736 198.93589311 -45.1875 184.203125 C-66.33783394 170.59455487 -80.6442927 151.48186787 -87.1875 127.203125 C-87.52394531 126.01009766 -87.52394531 126.01009766 -87.8671875 124.79296875 C-94.22533565 97.31357505 -86.75728232 65.40471242 -73.1875 41.203125 C-59.26455337 19.28406407 -39.16156616 6.78152466 -14.1875 1.203125 C-9.44543654 0.26414072 -4.81986676 0.0278903 0 0 Z " fill="#FEFEFE" transform="translate(144.1875,50.796875)"/>
<path d="M0 0 C1.73830078 0.78890625 1.73830078 0.78890625 3.51171875 1.59375 C22.41317234 10.44781742 38.49111076 24.27330998 48 43 C48.42023438 43.75667969 48.84046875 44.51335937 49.2734375 45.29296875 C59.37561287 64.05852482 61.8926774 91.16340428 56.375 111.875 C55.63566661 114.26680836 54.84399406 116.6430878 54 119 C53.5475184 120.36176048 53.0957205 121.72374829 52.64453125 123.0859375 C44.90664874 145.65564119 30.25097286 164.38355808 8.8125 175.25 C-14.2568607 186.48487334 -43.20193963 189.61128586 -68 182 C-69.1446875 181.6596875 -70.289375 181.319375 -71.46875 180.96875 C-95.09045132 173.23421063 -114.3903265 158.27707891 -126 136 C-136.66050854 114.26570276 -141.16855217 85.77075472 -133.328125 62.3046875 C-132.88984375 61.21414063 -132.4515625 60.12359375 -132 59 C-131.74798828 58.3493457 -131.49597656 57.69869141 -131.23632812 57.02832031 C-122.82987142 35.52835371 -108.65818297 16.45542473 -89 4 C-88.24589844 3.48953125 -87.49179687 2.9790625 -86.71484375 2.453125 C-61.19825259 -14.07515108 -26.96923733 -12.46331892 0 0 Z " fill="#FEFEFE" transform="translate(812,377)"/>
<path d="M0 0 C5.09502357 3.62858439 8.95802691 7.22719625 12.91796875 12.078125 C14.12453125 13.25375 14.12453125 13.25375 15.35546875 14.453125 C32.39057956 31.90372632 37.405874 56.04893103 37.13671875 79.63671875 C36.93009132 87.02235809 35.70236786 93.90962986 33.91796875 101.078125 C33.65113281 102.17125 33.38429688 103.264375 33.109375 104.390625 C26.69963059 127.63663141 11.44894315 148.73129665 -9.390625 161.046875 C-31.60076058 173.53154645 -57.93991891 178.85834231 -83.08203125 172.390625 C-85.43277374 171.67463741 -87.76899831 170.90788828 -90.08203125 170.078125 C-91.15066406 169.70429687 -92.21929687 169.33046875 -93.3203125 168.9453125 C-105.01154169 164.45897042 -114.70817765 157.26050869 -124.08203125 149.078125 C-124.76910156 148.48773437 -125.45617187 147.89734375 -126.1640625 147.2890625 C-144.57382305 130.26659552 -155.25706289 104.12146898 -156.41015625 79.421875 C-157.12858997 53.46764784 -148.45734702 31.04815341 -130.52905273 12.05615234 C-94.37907961 -24.77956337 -42.48562456 -28.22223089 0 0 Z " fill="#FEFEFE" transform="translate(374.08203125,413.921875)"/>
<path d="M0 0 C46.2 0 92.4 0 140 0 C140 0.33 140 0.66 140 1 C138.8346875 1.00257813 137.669375 1.00515625 136.46875 1.0078125 C118.08646799 1.33474379 99.77771335 5.371733 83 13 C81.86820312 13.51175781 80.73640625 14.02351562 79.5703125 14.55078125 C46.0682644 30.49541027 24.54487551 57.89885465 11.375 91.96875 C5.28651431 109.16786211 2.18402782 127.83129723 1 146 C0.67 146 0.34 146 0 146 C0 97.82 0 49.64 0 0 Z " fill="#FDFDFD" transform="translate(0,0)"/>
</svg>
