<?xml version="1.0" encoding="UTF-8"?>
<svg id="Layer_2" data-name="Layer 2" xmlns="http://www.w3.org/2000/svg" viewBox="0 0 9.89 9.78">
  <g id="Layer_1-2" data-name="Layer 1">
    <g>
      <path d="M4.95,8.9h0c.23,0,.46,0,.69,0,.59,0,1.17,0,1.75-.07.8-.1,1.37-.62,1.53-1.41.07-.34.08-.68.08-1.02,0-1.2.04-2.41-.03-3.61-.02-.3-.07-.6-.2-.87-.23-.5-.64-.79-1.17-.92-.36-.09-.73-.1-1.1-.1-1.04,0-2.09,0-3.13,0-.36,0-.73.01-1.08.1-.64.16-1.07.55-1.26,1.18-.11.35-.12.72-.13,1.09,0,1.08,0,2.15,0,3.23,0,.32.01.65.09.97.15.68.56,1.13,1.24,1.32.33.09.67.11,1,.11.57.01,1.15.02,1.72.02M4.86,9.78c-.54,0-1.09-.01-1.63-.02-.39,0-.79-.03-1.17-.13-.77-.2-1.35-.63-1.71-1.34-.17-.34-.26-.7-.29-1.07C-.01,6.46,0,5.71,0,4.96c0-.54,0-1.08.01-1.62,0-.41.02-.82.11-1.22C.31,1.32.76.72,1.5.35c.34-.17.71-.26,1.09-.29C3.37-.01,4.16,0,4.95,0c.65,0,1.29.01,1.94.03.51.01,1,.08,1.47.3.73.34,1.18.92,1.39,1.68.1.36.13.73.13,1.11,0,1.08.01,2.15.01,3.23,0,.38-.02.77-.08,1.15-.2,1.15-.99,1.94-2.1,2.17-.37.08-.75.09-1.13.1-.57,0-1.14,0-1.71,0v.02"/>
      <path d="M4.01,6.57c0-.51,0-1.03,0-1.54,0-.11,0-.12-.12-.12-.16,0-.32,0-.47,0-.06,0-.09-.02-.09-.08,0-.33,0-.65,0-.98,0-.06.03-.08.08-.08.15,0,.31,0,.46,0,.13,0,.13,0,.14-.13,0-.31,0-.62.03-.94.05-.61.44-.99,1.06-1.05.4-.04.81-.03,1.21-.04.11,0,.11,0,.11.11,0,.32,0,.65,0,.97,0,.07-.03.09-.1.09-.22,0-.44,0-.66,0-.1,0-.2.02-.24.12-.01.03-.02.07-.02.1,0,.22,0,.44-.02.67,0,.07.02.09.09.09.2,0,.4,0,.59,0,.08,0,.17.01.25.01.07,0,.09.04.09.1-.01.14-.02.27-.03.41-.01.17-.03.33-.05.5-.01.1-.02.11-.12.11-.23,0-.46.01-.69.02-.13,0-.14,0-.14.14,0,1.01,0,2.02,0,3.03,0,.17,0,.18-.18.18-.35,0-.7,0-1.05,0-.15,0-.16,0-.16-.15v-1.53"/>
    </g>
  </g>
</svg>