<?xml version="1.0" encoding="UTF-8"?>
<svg id="Layer_2" data-name="Layer 2" xmlns="http://www.w3.org/2000/svg" viewBox="0 0 9.5 9.51">
  <g id="Layer_1-2" data-name="Layer 1">
    <g>
      <path d="M6.54,8.64s0,0,0,0c.05,0,.09,0,.14-.01.15-.02.3-.03.45-.05.2-.02.38-.09.56-.17.22-.1.39-.26.54-.44.15-.19.24-.41.3-.64.06-.23.08-.46.09-.7.01-.17.02-.35.02-.53,0-.93,0-1.85,0-2.78,0-.17,0-.33-.02-.5,0-.15-.03-.3-.05-.45-.02-.19-.08-.36-.16-.53-.1-.23-.26-.41-.45-.57-.19-.15-.41-.24-.64-.3-.23-.06-.46-.08-.7-.09-.18-.01-.35-.02-.53-.02-.93,0-1.85,0-2.78,0-.17,0-.33,0-.5.02-.15.01-.3.03-.45.05-.2.02-.38.09-.56.17-.22.1-.39.26-.54.44-.15.19-.24.41-.3.64-.06.23-.08.46-.09.7-.01.17-.02.35-.02.53,0,.93,0,1.85,0,2.78,0,.17,0,.33.02.5.01.15.03.3.05.46.02.19.08.36.16.53.1.23.26.41.45.57.19.15.41.24.64.3.23.06.46.08.7.09.18.01.37.02.55.02.82,0,1.65,0,2.47,0,.09,0,.18,0,.27,0,.12,0,.25,0,.37,0M6.68,9.48c-.24,0-.48,0-.72.01-.1,0-.2,0-.3,0-.67,0-1.34,0-2.01,0-.16,0-.32,0-.49,0-.14,0-.29,0-.43-.02-.36-.02-.72-.07-1.06-.2-.24-.09-.47-.21-.67-.37-.07-.06-.15-.12-.21-.18-.25-.25-.43-.53-.56-.86-.07-.19-.13-.38-.16-.58-.02-.11-.03-.22-.04-.34,0-.11-.02-.21-.02-.32,0-.21-.02-.42-.02-.64C0,5.21,0,4.43,0,3.66c0-.16,0-.32,0-.49,0-.14,0-.29.02-.43.02-.27.05-.54.12-.8.09-.31.2-.6.4-.86.08-.11.17-.21.26-.31.24-.23.51-.41.83-.53.21-.08.42-.14.64-.17.13-.02.27-.03.4-.04.14,0,.29-.01.43-.02.1,0,.21,0,.31,0C4.25,0,5.06,0,5.88,0c.15,0,.3,0,.45,0,.14,0,.28,0,.42.02.36.02.72.07,1.07.2.24.09.46.21.67.37.25.19.45.43.61.7.14.24.23.49.29.76.03.13.05.27.06.41.02.14.02.28.03.42,0,.22.02.43.02.65,0,.79,0,1.58,0,2.37,0,.14,0,.28,0,.42,0,.14,0,.29-.02.43-.02.36-.07.71-.2,1.05-.09.25-.21.47-.38.68-.19.24-.42.45-.69.6-.23.13-.47.22-.73.28-.15.03-.3.05-.45.07-.11.02-.23.02-.35.03"/>
      <path d="M6.34,4.75c0-.89-.71-1.55-1.5-1.59-.43-.02-.82.11-1.14.4-.33.29-.51.66-.53,1.1-.05.98.73,1.64,1.51,1.67.95.04,1.68-.73,1.67-1.59M4.75,7.19c-1.35-.01-2.46-1.08-2.44-2.48,0-.69.27-1.27.78-1.74.48-.45,1.06-.67,1.71-.65.69.01,1.27.28,1.74.78.45.48.66,1.05.65,1.71-.01.68-.28,1.27-.78,1.74-.47.44-1.03.65-1.66.66"/>
      <path d="M6.72,2.21c-.01-.29.25-.58.59-.56.28.01.56.25.54.6-.01.27-.25.56-.62.54-.25-.02-.54-.26-.52-.57"/>
    </g>
  </g>
</svg>