<?xml version="1.0" encoding="UTF-8"?>
<svg id="Layer_2" data-name="Layer 2" xmlns="http://www.w3.org/2000/svg" viewBox="0 0 9.89 9.78">
  <g id="Layer_1-2" data-name="Layer 1">
    <g>
      <path d="M4.95,8.9h0c.23,0,.46,0,.69,0,.59,0,1.17,0,1.75-.07.8-.1,1.37-.62,1.53-1.41.07-.34.08-.68.08-1.02,0-1.2.04-2.41-.03-3.61-.02-.3-.07-.6-.2-.87-.23-.5-.64-.79-1.17-.92-.36-.09-.73-.1-1.1-.1-1.04,0-2.09,0-3.13,0-.36,0-.73.01-1.08.1-.64.16-1.07.55-1.26,1.18-.11.35-.12.72-.13,1.09,0,1.08,0,2.15,0,3.23,0,.32.01.65.09.97.15.68.56,1.13,1.24,1.32.33.09.67.11,1,.11.57.01,1.15.02,1.72.02M4.86,9.78c-.54,0-1.09-.01-1.63-.02-.39,0-.79-.03-1.17-.13-.77-.2-1.35-.63-1.71-1.34-.17-.34-.26-.7-.29-1.07C-.01,6.46,0,5.71,0,4.96c0-.54,0-1.08.01-1.62,0-.41.02-.82.11-1.22C.31,1.32.76.72,1.5.35c.34-.17.71-.26,1.09-.29C3.37-.01,4.16,0,4.95,0c.65,0,1.29.01,1.94.03.51.01,1,.08,1.47.3.73.34,1.18.92,1.39,1.68.1.36.13.73.13,1.11,0,1.08.01,2.15.01,3.23,0,.38-.02.77-.08,1.15-.2,1.15-.99,1.94-2.1,2.17-.37.08-.75.09-1.13.1-.57,0-1.14,0-1.71,0v.02"/>
      <g>
        <path d="M7.86,7.64h-1.21v-2.15c-.02-.49-.2-.83-.75-.77-.51.06-.59.52-.6.95v1.96s-1.2,0-1.2,0v-3.89h1.15v.52h.02c.27-.45.76-.64,1.28-.62,1.02.05,1.29.74,1.32,1.65v2.33Z"/>
        <rect x="2.13" y="3.76" width="1.21" height="3.89"/>
        <path d="M2.7,1.83c.5-.03.87.49.68.96-.21.54-.97.6-1.26.09-.26-.46.05-1.02.58-1.05Z"/>
      </g>
    </g>
  </g>
</svg>