<?xml version="1.0" encoding="UTF-8"?>
<svg id="Layer_2" data-name="Layer 2" xmlns="http://www.w3.org/2000/svg" viewBox="0 0 48.47 26.1">
  <g id="Layer_1-2" data-name="Layer 1">
    <path d="M36.51,2.45l-1.07-.03c-1.59.09-3.19.03-4.77.08-.42.01-1.62.01-1.95.13-.15.05-.42.34-.55.47-1.2,1.14-2.33,2.37-3.5,3.54-.26.26-1.7,1.54-1.73,1.76-.01.08.01.15.07.21l4.97,4.22c.35.1.78-.32,1.08-.49,2.02-1.09,4.33-1.19,6.4-.16,2.91,1.45,3.8,5.31,2.61,8.18-2.88,6.95-13.67,3.67-12-4.05.07-.34.35-.99.35-1.26,0-.3-.33-.53-.53-.71-1.44-1.27-2.98-2.57-4.46-3.8-.15-.12-.58-.5-.74-.51-.13,0-.19.06-.29.12-.95.58-2.25,1.61-3.13,2.33-.23.19-1.43,1.22-1.45,1.43,0,.04,0,.05.02.09.07.14.73.41.92.52,3.4,1.98,4.68,5.98,2.05,9.2-3.92,4.8-12.03,1.93-11.49-4.45.21-2.5,1.95-3.8,3.72-5.27,3.2-2.65,6.59-5.06,9.77-7.73,1.37-1.15,2.69-2.38,4.05-3.54l-.03-.14-13.45-.22c.2.5.54.93.76,1.44,1.07,2.49.41,5.72-1.78,7.36-2.66,2-6.39,1.9-8.74-.53C-.85,8.06-.47,2.97,2.58,1.02,4.2-.02,5.8.08,7.64.04c4.09-.09,8.18.07,12.27.1,5.71.05,11.41,0,17.11-.06,4.69-.06,10.78-.97,11.42,5.34.23,2.29-.66,5.07-2.69,6.32-4.73,2.89-10.65-.24-10.36-5.93.06-1.22.44-2.35,1.12-3.35ZM5.58,2.18c-2.1.29-3.26,1.93-3.31,3.98-.11,4.85,6.61,5.61,7.84,1.15.89-3.24-1.24-5.58-4.53-5.13ZM41.19,2.3c-4.45.62-4.49,7.22-.3,8.16,2.55.57,5.13-1.21,5.34-3.84.24-2.95-2.28-4.7-5.04-4.32ZM31.62,13.83c-3.62.5-4.58,6.08-1.04,7.6,3.14,1.34,6.33-1.12,5.65-4.51-.41-2.04-2.6-3.37-4.61-3.1ZM13.03,15.92c-2.66.39-4.2,3.27-2.93,5.69,1.9,3.62,7.2,2.48,7.44-1.59.15-2.54-2-4.47-4.51-4.11Z"/>
  </g>
</svg>