<?xml version="1.0" encoding="UTF-8"?>
<svg id="Layer_2" data-name="Layer 2" xmlns="http://www.w3.org/2000/svg" viewBox="0 0 50.94 68.09">
  <defs>
    <style>
      .cls-1 {
        fill: #005880;
      }
    </style>
  </defs>
  <g id="Layer_1-2" data-name="Layer 1">
    <path class="cls-1" d="M50.79,12.05C47.97-2.29,33.33-.12,22.28.48c-1.2.07-4.09,5.72-4.09,6.87.04,6.99.08,13.99.12,20.98-4.7.1-9.4.19-14.11.29-1.19.03-4.07,5.75-4.09,6.87-.04,2.82-.08,5.65-.11,8.47.01-1.06,4.08-4.45,4.11-6.69,0-.56.02-1.13.02-1.69,4.74-.1,9.48-.2,14.22-.3.05,8.54.1,17.07.14,25.6-3.18.05-6.36.11-9.54.16-1.85.03-3.26,7.03-4.07,7.04,4.56-.07,9.12-.15,13.67-.23,1.17-.02,4.09-5.76,4.09-6.87-.05-8.6-.1-17.2-.15-25.8,1.28-.02,2.55-.05,3.82-.08,7.75-.16,11.43,1.26,16.39-4.64,3.58-4.25,9.23-12.53,8.07-18.44ZM41.75,27.84c-6.43.13-12.87.26-19.3.4-.04-6.98-.08-13.96-.12-20.94,4.89-.25,9.84-.38,14.66.25,7.79,1.02,14.73,20.08,4.75,20.29Z"/>
  </g>
</svg>