<?xml version="1.0" encoding="UTF-8"?>
<svg id="Layer_2" data-name="Layer 2" xmlns="http://www.w3.org/2000/svg" viewBox="0 0 54.68 67.34">
  <defs>
    <style>
      .cls-1 {
        fill: #005880;
      }
    </style>
  </defs>
  <g id="Layer_1-2" data-name="Layer 1">
    <path class="cls-1" d="M37.4,22.42c4.15-5.35,8.31-10.7,12.46-16.05.45-.59,3.49-6.37,3.45-6.37H6.45c-.83,0-1.59,1.53-2.23,3.14-1.09,1.42-2.09,2.92-1.65,3.59,4.1,6.3,8.2,12.59,12.3,18.89-7.14,2.96-11.37,9.42-14.05,17.71-5.46,16.9,17.8,25.12,30.16,23.89,11.58-1.15,19.65-9.49,22.94-20.17,3.46-11.24-5.43-23.18-16.52-24.63ZM47.93,6.73c-4.03,5.19-8.06,10.38-12.09,15.57-.56.14-1.11,1.01-1.62,2.09-2.19,2.82-4.39,5.65-6.58,8.47,1.04-1.33-9.81-16.71-16.48-26.13h36.77ZM50.45,51.31c-.52,5.66-8.85,7.62-13.25,8.76-8.36,2.17-17.65-.13-24.61-4.93-3.59-2.48-5.89-6.23-7.52-10.18-4.28-10.38,5.5-13.69,13.09-14.29,1.93,2.96,3.86,5.92,5.79,8.88.19-.06.33-.18.43-.36,2.64-3.39,5.27-6.79,7.91-10.18,6.97.4,12.3,4.28,15.87,10.26,2.15,3.61,2.67,7.94,2.29,12.04Z"/>
  </g>
</svg>