<?xml version="1.0" encoding="UTF-8"?>
<svg id="Layer_2" data-name="Layer 2" xmlns="http://www.w3.org/2000/svg" viewBox="0 0 69.05 69.05">
  <defs>
    <style>
      .cls-1 {
        fill: #1d1d1b;
      }
    </style>
  </defs>
  <g id="Layer_1-2" data-name="Layer 1">
    <path class="cls-1" d="M38.31,2.21l.05,13.59c0,1.98-.72,4.21-3.91,4.23-3.19.01-3.96-2.22-3.97-4.2l-.05-13.59c0-1.21-.96-2.2-2.18-2.19-1.21,0-2.16,1-2.16,2.21l.05,12.24-8.69-8.62c-.86-.85-2.26-.85-3.11.01-.85.86-.85,2.26.01,3.11l9.65,9.57c1.4,1.39,2.47,3.49.22,5.75-2.25,2.26-4.37,1.23-5.77-.16l-9.65-9.57c-.86-.85-2.24-.87-3.09-.01-.85.86-.83,2.24.04,3.09l8.69,8.62-12.24.05C.98,26.34,0,27.34,0,28.55s1,2.2,2.21,2.19l13.59-.05c1.98,0,4.21.72,4.23,3.91.01,3.19-2.22,3.96-4.2,3.97l-13.59.05c-1.21,0-2.2.96-2.19,2.18s1,2.16,2.21,2.16l12.24-.05-8.62,8.69c-.85.86-.85,2.26.01,3.11.86.85,2.26.85,3.11-.01l9.57-9.65c1.39-1.4,3.49-2.47,5.75-.22,2.26,2.25,1.23,4.37-.16,5.77l-9.57,9.65c-.85.86-.87,2.24-.01,3.09.86.85,2.24.83,3.09-.04l8.62-8.69.05,12.24c0,1.21,1,2.2,2.21,2.19s2.2-1,2.19-2.21l-.05-13.59c0-1.98.72-4.21,3.91-4.23s3.96,2.22,3.97,4.2l.05,13.59c0,1.21.96,2.2,2.18,2.19,1.21,0,2.16-1,2.16-2.21l-.05-12.24,8.69,8.62c.86.85,2.26.85,3.11-.01.85-.86.85-2.26-.01-3.11l-9.65-9.57c-1.4-1.39-2.47-3.49-.22-5.75,2.25-2.26,4.37-1.23,5.77.16l9.65,9.57c.86.85,2.24.87,3.09.01.85-.86.83-2.24-.04-3.09l-8.69-8.62,12.24-.05c1.21,0,2.2-1,2.19-2.21s-1-2.2-2.21-2.19l-13.59.05c-1.98,0-4.21-.72-4.23-3.91-.01-3.19,2.22-3.96,4.2-3.97l13.59-.05c1.21,0,2.2-.96,2.19-2.18s-1-2.16-2.21-2.16l-12.24.05,8.62-8.69c.85-.86.85-2.26-.01-3.11-.86-.85-2.26-.85-3.11.01l-9.57,9.65c-1.39,1.4-3.49,2.47-5.75.22-2.26-2.25-1.23-4.37.16-5.77l9.57-9.65c.85-.86.87-2.24.01-3.09-.86-.85-2.24-.83-3.09.04l-8.62,8.69-.05-12.24C42.71.98,41.71,0,40.5,0s-2.2,1-2.19,2.21ZM42.03,26.94c1.44,1.43,2.92,2.26,4.37,2.61-.76,1.27-1.21,2.89-1.2,4.92,0,2.03.47,3.67,1.25,4.93-1.44.35-2.9,1.19-4.33,2.63-1.43,1.44-2.26,2.92-2.61,4.37-1.27-.76-2.89-1.21-4.92-1.2s-3.67.47-4.93,1.25c-.35-1.44-1.19-2.9-2.63-4.33-1.44-1.43-2.92-2.26-4.37-2.61.76-1.27,1.21-2.89,1.2-4.92,0-2.03-.47-3.67-1.25-4.93,1.44-.35,2.9-1.19,4.33-2.63,1.43-1.44,2.26-2.92,2.61-4.37,1.27.76,2.89,1.21,4.92,1.2s3.67-.47,4.93-1.25c.35,1.44,1.19,2.9,2.63,4.33Z"/>
  </g>
</svg>