<?xml version="1.0" encoding="UTF-8"?>
<svg id="Layer_2" data-name="Layer 2" xmlns="http://www.w3.org/2000/svg" viewBox="0 0 70.37 70.37">
  <g id="Layer_1-2" data-name="Layer 1">
    <path d="M67.35,40.44l.18.02c.02-.14.03-.29.05-.43.04-.36.09-.72.15-1.07.02-.14.04-.28.07-.42l-.18-.02c-.02.12-.05.25-.1.36-.03.07-.07.12-.1.15-.04.03-.09.05-.16.06-.07,0-.16,0-.27-.01l-2.83-.39c-.11-.01-.19-.03-.27-.06-.13-.05-.18-.13-.2-.27-.01-.12,0-.25,0-.37l-.18-.02c-.02.14-.04.28-.05.42l-.04.3c-.02.16-.04.32-.07.47l-.04.3c-.02.14-.05.29-.07.43l.18.02c.02-.12.05-.25.09-.36.03-.07.07-.12.1-.15.04-.03.09-.05.16-.05.08,0,.17,0,.27.02l2.83.39c.11.01.2.03.26.06.07.02.11.06.14.09.03.04.05.1.06.17.02.12,0,.25,0,.38M65.68,44.74l.31.08.24.06c.1.03.2.06.29.09.01-.14.04-.28.07-.42.02-.06.03-.12.04-.18.09-.33.18-.66.26-.99.04-.15.07-.28.1-.42.08-.28.15-.57.23-.85.04-.14.08-.28.12-.41l-.16-.04c-.04.12-.08.24-.14.35-.04.07-.08.11-.12.14-.04.02-.09.04-.16.03-.07,0-.16-.02-.26-.05l-2.77-.74c-.11-.03-.19-.06-.26-.09-.12-.06-.16-.16-.16-.29,0-.12.03-.25.05-.37l-.17-.05c-.04.14-.07.28-.1.42l-.08.29c-.02.1-.04.18-.06.24l-.47,1.7-.04.14c-.02.05-.04.11-.05.17-.02.06-.04.12-.06.18-.03.07-.05.14-.08.21.19.07.39.14.58.21.2.07.39.15.58.24l.05-.17c-.14-.09-.29-.19-.41-.31-.09-.09-.16-.19-.2-.3-.04-.1-.07-.22-.07-.34,0-.27.11-.65.23-.89.06-.11.12-.19.2-.24.08-.04.17-.06.29-.06.34.03,1.17.28,1.36.33-.07.25-.12.53-.24.77-.05.1-.1.18-.16.23-.05.05-.12.08-.2.09-.12.02-.24,0-.36-.03l-.05.18c.12.03.25.06.37.08.08.02.16.04.24.05.12.03.24.07.37.1.08.03.16.05.23.07.11.04.23.07.35.11l.05-.17c-.11-.04-.2-.07-.29-.15-.06-.05-.12-.12-.16-.2-.04-.08-.06-.18-.06-.31,0-.25.08-.51.15-.75l1.68.45c-.09.34-.17.71-.34,1.03-.09.17-.18.29-.28.36-.09.08-.2.12-.32.14-.15.02-.31.03-.46.04l-.04.16c.12.03.23.05.35.08M60.28,48.45l2.97,1.38c.17.08.3.15.41.21.1.06.18.13.22.19.04.06.06.13.06.21,0,.13-.05.25-.09.36l.17.08c.04-.1.09-.21.13-.31.11-.28.25-.56.39-.83.05-.11.11-.22.16-.33l-.17-.08c-.07.13-.13.25-.22.36-.06.07-.11.09-.18.11-.07.02-.17,0-.29-.03-.12-.04-.28-.11-.48-.2l-1.86-.87h-.07s4.18-1.29,4.18-1.29l.37-.8-.16-.08c-.06.11-.12.23-.2.33-.04.05-.1.09-.18.09-.08,0-.2,0-.36-.07-.59-.21-2.03-.92-2.25-1.02-.17-.08-.3-.15-.41-.22-.1-.06-.17-.13-.22-.19-.04-.06-.07-.13-.07-.21,0-.12.05-.24.1-.36l-.16-.08c-.04.1-.09.19-.13.29l-.09.2c-.05.13-.11.26-.18.39l-.11.25c-.06.11-.11.23-.17.34l.16.08c.07-.13.12-.23.21-.35.05-.07.11-.09.18-.11.07-.02.17-.01.28.02.12.04.29.1.49.2l1.85.86h.07s-4.28,1.3-4.28,1.3l-.08.16ZM60.83,53.45c.1.06.21.12.31.19l.46.3.25.18.07-.11c.05-.07.1-.13.15-.18.05-.05.1-.1.16-.16.05-.05.11-.11.17-.18.18-.21.33-.47.4-.74.05-.17.06-.33.05-.49-.01-.16-.06-.31-.14-.45-.14-.26-.43-.46-.72-.51-.13-.02-.26-.01-.4.01-.14.03-.28.08-.44.15-.15.07-.32.15-.5.24-.17.09-.32.16-.45.21-.13.06-.24.09-.34.11-.1.02-.18.02-.25,0-.18-.03-.34-.16-.45-.29-.06-.07-.11-.15-.14-.24-.03-.09-.03-.19-.01-.3.05-.25.27-.56.48-.7.12-.07.25-.12.38-.14.13-.02.27-.02.41,0,.16.02.31.05.46.1l.1-.15c-.19-.09-.37-.18-.55-.28-.18-.1-.35-.2-.53-.3-.06.1-.13.2-.21.28-.06.06-.11.13-.16.19-.28.28-.5.61-.62,1-.06.19-.08.38-.07.56.01.19.06.36.14.51.14.27.44.5.74.55.12.02.25.02.39-.01.13-.03.28-.08.44-.16.16-.07.35-.16.57-.27.19-.09.34-.16.47-.21.13-.05.24-.08.32-.09.09-.01.16,0,.21,0,.14.04.28.14.38.26.06.07.1.14.13.22.03.08.04.16.03.25-.02.22-.23.49-.42.59-.11.07-.23.1-.35.11-.12,0-.25,0-.38-.04-.15-.04-.3-.08-.44-.14l-.09.15ZM57.46,54.06l2.22,1.79c.09.07.15.13.19.18.04.05.06.1.07.15,0,.05,0,.11-.04.18-.05.11-.12.22-.2.32l.14.11c.09-.12.18-.23.27-.34.22-.29.44-.57.68-.84.09-.11.18-.22.28-.33l-.14-.11c-.08.09-.17.19-.27.26-.06.05-.12.07-.17.08-.05,0-.1,0-.16-.03-.06-.03-.14-.08-.22-.15l-2.22-1.79c-.09-.07-.15-.13-.2-.19-.09-.11-.08-.21-.03-.33.05-.11.13-.21.2-.32l-.14-.11c-.09.11-.18.22-.26.34l-.19.24c-.1.13-.2.25-.3.37l-.19.23c-.1.11-.19.22-.28.34l.14.11c.08-.09.17-.19.27-.26.06-.04.12-.07.17-.08.05,0,.1,0,.16.03.07.03.14.09.23.15M54.53,56.46c-.03.18-.02.36.02.53.07.29.31.59.6.7.11.05.24.07.38.07.14,0,.29-.02.47-.06.17-.03.38-.08.61-.13.2-.05.37-.08.51-.1.14-.02.25-.02.34-.01.09,0,.15.02.2.05.13.07.24.2.31.34.04.08.07.16.08.24,0,.08,0,.17-.03.25-.07.21-.34.42-.54.48-.12.04-.24.05-.36.03-.12-.02-.24-.06-.36-.13-.14-.07-.27-.15-.4-.24l-.12.12c.09.08.18.17.26.25l.21.22.17.17.2.23.09-.09c.07-.06.13-.11.19-.15.06-.04.12-.08.19-.12.07-.04.13-.09.2-.14.22-.16.43-.39.56-.63.08-.15.14-.31.16-.47.02-.16.01-.31-.03-.47-.08-.28-.32-.54-.59-.66-.12-.05-.25-.07-.39-.08-.14,0-.29.01-.46.04-.16.03-.35.07-.55.12-.19.05-.35.08-.48.11-.14.03-.25.04-.35.03-.1,0-.18-.02-.25-.05-.17-.07-.3-.23-.38-.38-.05-.08-.07-.17-.08-.26,0-.09.01-.19.05-.29.1-.23.39-.49.62-.58.13-.04.27-.06.4-.05.13,0,.27.04.4.09.15.06.29.12.42.2l.13-.12c-.16-.13-.32-.26-.47-.4-.15-.14-.3-.28-.45-.42-.08.08-.17.16-.27.23-.07.05-.14.1-.2.14-.33.21-.63.49-.82.83-.1.17-.16.35-.2.53M47.11,61.32c.06,0,.12,0,.18.03.06.01.14.04.21.08.08.04.17.08.27.13l1.63.9-.21,1.35c-.02.12-.04.24-.07.36-.03.11-.06.22-.11.31-.04.1-.1.19-.18.27-.1.1-.2.17-.32.24l.08.16c.11-.06.21-.12.32-.18.07-.04.14-.08.22-.12.12-.07.23-.13.35-.18.06-.03.12-.06.17-.08l.25-.11-.08-.16c-.09.04-.2.1-.3.1-.12-.01-.13-.13-.12-.22.01-.09.02-.18.04-.29l.22-1.31-.04-.02c.2.1.4.2.59.3.13.06.25.12.38.19.12.06.23.12.33.18.1.06.18.1.25.15.07.05.09.07.1.08.04.09-.21.22-.27.24l.08.16c.11-.06.22-.12.33-.18.07-.04.15-.08.22-.12.13-.07.25-.14.38-.2.08-.04.16-.08.23-.11.11-.05.22-.1.33-.15l-.08-.16c-.09.04-.16.07-.26.08-.07,0-.14,0-.21-.01-.07-.02-.15-.04-.22-.07-.08-.03-.16-.07-.24-.11l-1.84-.94.18-1.49c.01-.12.03-.22.06-.3.05-.16.14-.29.28-.38.09-.07.18-.13.28-.19l-.08-.16c-.09.05-.19.11-.28.16-.26.15-.53.29-.81.41l-.33.15.08.17c.08-.04.12-.07.21-.09.05-.01.1-.01.13,0,.04,0,.06.02.07.03.06.05.11.14.11.25,0,.06,0,.17-.01.27l-.13,1.02.03.03c-.1-.05-.21-.11-.35-.18-.31-.17-.62-.35-.92-.55-.02-.02-.17-.11-.19-.14-.05-.1.21-.22.26-.25l-.08-.17c-.1.06-.21.12-.31.18-.26.15-.54.29-.82.42-.11.05-.22.1-.32.15l.08.16c.07-.03.15-.07.23-.07M44.04,62.44c.12-.03.24-.07.37-.08.08,0,.14,0,.18.02.04.02.09.06.12.11.04.06.07.14.11.24l.94,2.7c.04.1.06.19.07.26.02.14-.04.22-.15.3-.11.07-.22.11-.34.16l.06.17c.14-.05.27-.09.4-.15l.29-.1c.15-.06.3-.11.45-.16l.28-.1c.14-.04.28-.09.41-.14l-.06-.17c-.12.03-.24.07-.37.08-.08,0-.14,0-.18-.03-.05-.02-.09-.06-.12-.11-.04-.06-.07-.15-.11-.25l-.94-2.7c-.04-.1-.06-.19-.07-.26,0-.07,0-.12.02-.16.02-.05.06-.09.13-.13.1-.07.22-.12.34-.17l-.06-.17c-.14.05-.27.1-.41.15-.34.13-.68.25-1.02.35-.14.05-.27.09-.41.13l.06.17ZM39.47,63.41c-.12.02-.23.04-.35.06l.04.18c.08-.01.16-.03.24,0,.05.01.11.04.17.07.06.03.12.08.18.14.07.06.14.12.23.2l1.34,1.29-.55,1.25c-.05.11-.1.22-.16.33-.05.1-.12.19-.19.28-.07.08-.15.15-.24.21-.12.07-.24.11-.37.14l.04.18c.12-.03.24-.06.36-.09.08-.02.16-.04.24-.06.13-.03.26-.06.39-.08.07-.01.13-.03.19-.03l.27-.04-.04-.18c-.1.02-.22.05-.32.02-.12-.04-.09-.16-.06-.25.03-.08.07-.17.11-.27l.55-1.21-.03-.03c.17.15.33.29.49.44.11.09.21.19.31.28.1.09.19.18.27.26.08.08.15.15.2.21.05.06.07.09.07.1.02.1-.26.15-.32.17l.04.18c.12-.03.24-.06.36-.09.08-.02.16-.04.25-.06.14-.04.28-.07.42-.09.09-.02.17-.03.26-.05.12-.02.24-.04.36-.06l-.04-.18c-.09.02-.17.03-.27.01-.07-.02-.13-.04-.2-.07-.06-.04-.13-.08-.2-.13-.07-.05-.13-.11-.2-.17l-1.53-1.39.56-1.4c.04-.11.09-.2.13-.27.09-.14.21-.24.37-.3.1-.04.21-.08.32-.11l-.04-.18c-.11.03-.21.05-.32.08-.29.08-.59.14-.89.19l-.36.06.04.18c.09-.02.14-.04.23-.03.05,0,.1.01.13.03.03.02.05.04.06.05.05.06.07.17.05.27,0,.06-.04.17-.08.26l-.39.95.02.04c-.08-.07-.18-.16-.29-.27-.26-.25-.51-.5-.75-.77-.02-.02-.14-.15-.14-.19-.02-.11.25-.16.32-.17l-.04-.18c-.12.03-.23.06-.35.09-.3.08-.6.14-.9.19M35.65,63.71c-.14,0-.29.02-.43.02v.18c.14,0,.26,0,.39.02.08.01.13.04.17.07.04.03.07.08.09.14.02.07.03.15.04.26l.2,2.85c0,.11,0,.2,0,.27-.02.14-.09.2-.22.25-.12.04-.25.05-.37.07v.18c.15-.01.3-.02.44-.04l.3-.02c.1-.01.18-.02.24-.02l1.76-.11h.14c.06-.01.12-.01.18-.02.06,0,.13,0,.19,0,.08,0,.15,0,.23,0,0-.2,0-.41,0-.61,0-.21.02-.42.03-.62h-.18c-.06.29-.15.58-.37.77-.29.27-.83.29-1.21.27-.12,0-.22-.04-.29-.09-.07-.05-.12-.13-.15-.24-.03-.11-.06-.26-.07-.46l-.18-2.48c0-.11,0-.2,0-.27,0-.07.03-.12.06-.15.03-.04.09-.07.16-.09.12-.04.25-.06.37-.08v-.18c-.16.01-.3.03-.45.04-.36.04-.72.07-1.08.08M30.44,65.55c-.1.94.32,1.76,1.18,2.18.38.18.85.28,1.28.26.13,0,.25,0,.37-.01.12-.01.24-.02.34-.02.11,0,.21,0,.32,0,.04-.2.08-.4.11-.6.04-.2.09-.41.14-.61l-.17-.02c-.08.15-.17.3-.26.45-.08.13-.17.24-.27.33-.1.09-.23.15-.38.2-.34.1-.76.03-1.07-.14-.41-.24-.65-.66-.78-1.1-.13-.52-.07-1.31.17-1.79.11-.23.25-.4.41-.54.17-.14.35-.23.55-.27.48-.11,1.13-.07,1.44.37.08.1.14.22.18.36.05.15.09.31.12.47l.17.02c.02-.4.06-.81.12-1.21-.13-.01-.25-.03-.38-.06-.09-.03-.2-.05-.31-.08-.56-.16-1.07-.23-1.66-.09-.3.07-.57.2-.81.37-.23.17-.42.39-.57.65-.14.26-.23.56-.27.9M25.85,65.76l.82-3.08s.05,0,.08.01c.06,0,.12.02.18.04.06.01.13.03.19.04.29.06.57.17.82.32.21.12.37.28.5.47.12.19.2.42.24.69.09.7-.26,1.81-.9,2.17-.37.21-.87.23-1.5.06-.23-.06-.36-.16-.41-.27-.06-.12-.06-.27-.01-.47M24.41,66.06l-.05.17c.14.04.28.07.43.11l.3.08c.16.04.31.07.46.12.09.02.17.05.26.07l.25.07c.7.19,1.55.38,2.25.03.51-.25.85-.72,1.03-1.4.19-.7.11-1.28-.25-1.74-.35-.45-.93-.78-1.73-1-.14-.03-.27-.07-.39-.1-.36-.08-.72-.18-1.08-.29-.14-.04-.28-.08-.41-.12l-.05.18c.12.04.24.08.35.14.07.04.12.08.14.12.02.04.04.09.03.16,0,.07-.02.16-.05.26l-.73,2.76c-.03.11-.06.19-.09.26-.06.12-.16.16-.29.16-.13,0-.25-.03-.37-.05M17.95,63.04l-.08.16c.09.05.19.09.28.14l.2.1c.12.06.25.12.36.19l.21.1c.09.05.19.1.29.15l.08-.16c-.12-.07-.24-.13-.34-.22-.05-.05-.08-.1-.09-.17,0-.07.02-.15.07-.27.3-.69,1.13-2.25,1.22-2.42l-.08,3.74.2.1,2.95-2.46-1.24,2.45c-.05.1-.1.18-.14.24-.04.05-.07.09-.11.11-.04.02-.08.02-.15.01-.11-.02-.21-.07-.31-.11l-.08.16c.11.06.22.11.33.16l.23.12c.14.06.28.13.41.21l.27.14c.13.07.26.14.39.2l.08-.16c-.11-.06-.22-.13-.31-.21-.06-.05-.09-.1-.11-.15-.02-.05-.02-.1,0-.17.02-.07.05-.15.1-.25l1.3-2.57c.05-.1.09-.18.13-.24.04-.06.07-.09.11-.1.04-.02.09-.02.16,0,.12.02.23.08.34.12l.08-.15-1-.51-2.94,2.47.08-3.92-1.04-.53-.08.15c.11.06.22.13.32.22.05.04.08.1.08.19,0,.08-.02.2-.08.35-.23.58-.99,2-1.1,2.22-.08.16-.16.3-.23.4-.07.1-.14.17-.2.21-.06.04-.13.06-.21.06-.12,0-.24-.06-.35-.11M13.17,21.57h0,0M16.8,21.57h0,0M18.61,21.57h0,0M22.25,21.57h0,0M35.19,38.14h0v-.36.36ZM38.65,42.32l.45.09c.23-1.14,1.24-2.01,2.45-2.01s2.22.86,2.45,2.01l.45-.09c-.27-1.35-1.46-2.37-2.89-2.37s-2.63,1.02-2.89,2.37M31.28,42.41l.45-.09c-.27-1.35-1.46-2.37-2.89-2.37s-2.63,1.02-2.89,2.37l.45.09c.23-1.14,1.24-2.01,2.45-2.01s2.22.86,2.45,2.01M38.65,33.7l.45.09c.23-1.14,1.24-2.01,2.45-2.01s2.22.86,2.45,2.01l.45-.09c-.27-1.35-1.46-2.37-2.89-2.37s-2.63,1.02-2.89,2.37M31.28,33.79l.45-.09c-.27-1.35-1.46-2.37-2.89-2.37s-2.63,1.02-2.89,2.37l.45.09c.23-1.14,1.24-2.01,2.45-2.01s2.22.86,2.45,2.01M35.19,31.33h0c-1.43,0-2.63,1.02-2.89,2.37l.45.09c.23-1.14,1.24-2.01,2.45-2.01s2.22.86,2.45,2.01l.45-.09c-.27-1.35-1.46-2.37-2.89-2.37M35.19,29.18v.33-.33ZM31.3,25.79l.45-.09c-.19-.93-1.01-1.64-2-1.64-.33,0-.63.08-.91.21-.27-.14-.58-.21-.91-.21-.99,0-1.82.71-2,1.64l.45.09c.15-.73.79-1.27,1.56-1.27.16,0,.31.02.45.07.16.05.32.12.45.22.14-.1.29-.17.45-.22.14-.04.3-.07.45-.07.77,0,1.41.55,1.56,1.27M36.09,20.2c0,.5-.41.91-.91.91s-.91-.41-.91-.91.41-.91.91-.91.91.41.91.91M36.55,20.2c0-.75-.61-1.36-1.36-1.36s-1.36.61-1.36,1.36.61,1.36,1.36,1.36,1.36-.61,1.36-1.36M37.65,25.79l.45-.09c-.19-.93-1.01-1.64-2-1.64-.33,0-.63.08-.91.21-.27-.14-.58-.21-.91-.21-.99,0-1.82.71-2,1.64l.45.09c.15-.73.79-1.27,1.56-1.27.16,0,.31.02.45.07.16.05.32.12.45.22.14-.1.29-.17.45-.22.14-.04.3-.07.45-.07.77,0,1.41.55,1.56,1.27M44.01,25.79l.44-.09c-.19-.93-1.01-1.64-2-1.64-.33,0-.63.08-.91.21-.27-.14-.58-.21-.91-.21-.99,0-1.82.71-2,1.64l.45.09c.15-.73.79-1.27,1.56-1.27.16,0,.31.02.45.07.16.05.32.12.45.22.14-.1.29-.17.45-.22.14-.04.3-.07.45-.07.77,0,1.41.55,1.56,1.27M49.94,21.57h0,0M51.76,21.57h0,0M55.39,21.57h0,0M57.21,21.57h0,0M55.99,25.03h-.57c.17.18.29.4.36.64.01.04.02.08.03.13l.45-.09s0-.03,0-.04c-.05-.23-.14-.45-.26-.64M52.26,25.67s0,.02,0,.04l.45.09s.02-.09.03-.13h-.16.16c.07-.24.2-.46.36-.64.29-.31.71-.51,1.17-.51s.88.2,1.17.51h.57c-.36-.58-1-.96-1.73-.96s-1.37.39-1.73.96c-.12.19-.21.41-.26.64ZM51.22,25.03h-.57c.17.18.29.4.36.64.01.04.02.08.03.13l.45-.09s0-.03,0-.04c-.05-.23-.14-.45-.26-.64M47.49,25.67s0,.02,0,.04l.45.09s.02-.09.03-.13h-.16.16c.07-.24.2-.46.36-.64.29-.31.71-.51,1.17-.51s.88.2,1.17.51h.57c-.36-.58-1-.96-1.73-.96s-1.37.39-1.73.96c-.12.19-.21.41-.26.64ZM51.05,34.42l.45-.09c-.19-.94-1.01-1.64-2-1.64s-1.82.71-2,1.64l.45.09c.15-.73.79-1.28,1.56-1.28s1.41.55,1.56,1.28M55.81,34.42l.45-.09c-.19-.94-1.01-1.64-2-1.64s-1.82.71-2,1.64l.45.09c.15-.73.79-1.28,1.56-1.28s1.41.55,1.56,1.28M60.58,34.42l.45-.09c-.19-.94-1.01-1.64-2-1.64s-1.82.71-2,1.64l.45.09c.14-.73.79-1.28,1.56-1.28s1.41.55,1.56,1.28M51.05,43.05l.45-.09c-.19-.94-1.01-1.64-2-1.64s-1.82.71-2,1.64l.45.09c.15-.73.79-1.28,1.56-1.28s1.41.55,1.56,1.28M55.81,43.05l.45-.09c-.19-.94-1.01-1.64-2-1.64s-1.82.71-2,1.64l.45.09c.15-.73.79-1.28,1.56-1.28s1.41.55,1.56,1.28M17.68,43.05l.45-.09c-.19-.94-1.01-1.64-2-1.64s-1.82.71-2,1.64l.45.09c.15-.73.79-1.28,1.56-1.28s1.41.55,1.56,1.28M22.44,43.05l.45-.09c-.19-.94-1.01-1.64-2-1.64s-1.82.71-2,1.64l.45.09c.15-.73.79-1.28,1.56-1.28s1.41.55,1.56,1.28M14.95,25.03h-.57c-.12.19-.21.41-.26.64v.04s.44.09.44.09c0-.04.02-.09.03-.13.07-.24.19-.46.36-.64M17.68,25.79l.45-.09s0-.02,0-.04c-.05-.23-.14-.45-.26-.64-.36-.58-1-.96-1.73-.96s-1.37.39-1.73.96h.57c.29-.31.71-.51,1.17-.51s.88.2,1.17.51c.17.18.29.4.36.64h.16-.16s.02.08.03.13M19.72,25.03h-.57c-.12.19-.21.41-.26.64,0,.01,0,.03,0,.04l.44.09s.02-.09.03-.13c.07-.24.2-.46.36-.64M22.44,25.79l.44-.09s0-.02,0-.04c-.05-.23-.14-.45-.26-.64-.36-.58-1-.96-1.73-.96s-1.37.39-1.73.96h.57c.29-.31.71-.51,1.17-.51s.88.2,1.17.51c.17.18.29.4.36.64h.16-.16s.02.08.03.13M18.88,34.33l.45.09c.15-.73.79-1.28,1.56-1.28s1.41.55,1.56,1.28l.45-.09c-.19-.94-1.01-1.64-2-1.64s-1.82.71-2,1.64M14.11,34.33l.45.09c.15-.73.79-1.28,1.56-1.28s1.41.55,1.56,1.28l.45-.09c-.19-.94-1.01-1.64-2-1.64s-1.82.71-2,1.64M9.35,34.33l.44.09c.15-.73.79-1.28,1.56-1.28s1.41.55,1.56,1.28l.44-.09c-.19-.94-1.01-1.64-2-1.64s-1.82.71-2,1.64M8.74,37.68c-.08-.82-.12-1.65-.12-2.5,0-1.95.21-3.85.61-5.68h14.6v-.45h-1.82v-1.47h-.23.23v-1.48c0-.16-.03-.3-.09-.44h-.53c.1.12.16.27.16.44v2.95h-1.36v-1.47h-.23.23v-1.48c0-.17.06-.32.16-.44.12-.15.31-.24.52-.24s.4.09.52.24h.53c-.13-.3-.38-.54-.7-.64h-.5.5c-.11-.04-.23-.06-.35-.06s-.24.02-.35.06c-.31.1-.57.34-.7.64-.06.13-.09.28-.09.44v2.95h-2.49v-1.47h-.23.23v-1.48c0-.16-.03-.3-.09-.44h-.53c.1.12.16.27.16.44v2.95h-1.36v-1.47h-.23.23v-1.48c0-.17.06-.32.16-.44.12-.15.31-.24.52-.24s.4.09.52.24h.53c-.13-.3-.38-.54-.7-.64h-.5.5c-.11-.04-.23-.06-.35-.06s-.24.02-.35.06c-.31.1-.57.34-.7.64-.06.13-.09.28-.09.44v2.95h-2.5v-1.47h-.23.23v-1.48c0-.16-.03-.3-.09-.44h-.53c.1.12.16.27.16.44v2.95h-1.36v-1.47h-.23.23v-1.48c0-.17.06-.32.16-.44.12-.15.31-.24.52-.24s.4.09.52.24h.53c-.13-.3-.38-.54-.7-.64h-.5.5c-.11-.04-.23-.06-.35-.06s-.24.02-.35.06c-.19.06-.36.17-.49.32.1-.25.2-.49.31-.73.17-.06.35-.09.53-.09.46,0,.88.2,1.17.51.17.18.29.4.36.64h.16-.16s.02.08.03.13l.45-.09s0-.02,0-.04c-.05-.23-.14-.45-.26-.64-.36-.58-1-.96-1.73-.96-.1,0-.2,0-.3.02.11-.24.22-.47.34-.7h1.55v-.91c0-.13.1-.23.23-.23s.23.1.23.23v.91h1.36v-.91c0-.13.1-.23.23-.23s.23.1.23.23v.91h1.36v-.91c0-.13.1-.23.23-.23s.23.1.23.23v.91h1.36v-.91c0-.13.1-.23.23-.23s.23.1.23.23v.91h1.36v-.91c0-.13.1-.23.23-.23s.23.1.23.23v.91h1.36v-.91c0-.13.1-.23.23-.23s.23.1.23.23v.91h1.36v14.3h-1.82v-2.95c0-.63-.51-1.13-1.13-1.13s-1.13.51-1.13,1.13v2.95h-2.5v-2.95c0-.63-.51-1.13-1.14-1.13s-1.13.51-1.13,1.13v2.95h-2.5v-2.95c0-.63-.51-1.13-1.14-1.13s-1.13.51-1.13,1.13v2.95h-1.47ZM10.67,37.68v-2.95c0-.38.31-.68.68-.68s.68.3.68.68v2.95h-1.36ZM15.44,37.68v-2.95c0-.38.3-.68.68-.68s.68.3.68.68v2.95h-1.36ZM20.2,37.68v-2.95c0-.38.3-.68.68-.68s.68.3.68.68v2.95h-1.36ZM8.79,38.14h15.05v8.17h-1.82v-2.95c0-.63-.51-1.13-1.13-1.13s-1.13.51-1.13,1.13v2.95h-2.5v-2.95c0-.63-.51-1.13-1.14-1.13s-1.13.51-1.13,1.13v2.95h-2.5v-2.95c0-.63-.51-1.13-1.14-1.13s-1.13.51-1.13,1.13v.9c-.15-.41-.29-.82-.42-1.24.16-.71.79-1.24,1.55-1.24s1.41.55,1.56,1.28l.45-.09c-.19-.94-1.01-1.64-2-1.64-.75,0-1.4.4-1.76,1-.38-1.35-.65-2.75-.81-4.18M10.67,45.42v-2.06c0-.38.31-.68.68-.68s.68.3.68.68v2.95h-.97c-.14-.29-.27-.59-.39-.89M15.44,46.31v-2.95c0-.38.3-.68.68-.68s.68.3.68.68v2.95h-1.36ZM20.2,46.31v-2.95c0-.38.3-.68.68-.68s.68.3.68.68v2.95h-1.36ZM11.28,46.76h12.56v1.36s-11.85,0-11.85,0c-.25-.45-.49-.9-.71-1.36M12.25,48.58h10.45v4.99h-.68v-2.95c0-.63-.51-1.13-1.13-1.13s-1.13.51-1.13,1.13v2.95h-2.5v-2.95c0-.63-.51-1.13-1.14-1.13-.08,0-.15,0-.23.02-.52.11-.91.56-.91,1.11v1.8c-1.02-1.2-1.94-2.48-2.74-3.85M15.44,52.47h0s0-1.85,0-1.85c0-.33.23-.6.54-.67.04,0,.09-.01.14-.01.38,0,.68.3.68.68v2.95h-.78c-.2-.21-.39-.42-.58-.63v-.47ZM20.2,53.57v-2.95c0-.38.3-.68.68-.68s.68.3.68.68v2.95h-1.36ZM16.47,54.03h6.23v1.36h-4.76c-.51-.44-1-.89-1.48-1.36M23.84,49.94v6.81h-.68v-8.17h.68v1.36ZM18.49,55.84h4.21v1.36h6.81v-1.36h4.33v2.27h-1.6v.45h5.68v-.45h-1.38v-2.27h4.33v1.36h6.81v-1.36h4.21c-4.56,3.69-10.37,5.9-16.69,5.9s-12.13-2.21-16.69-5.9M52.43,55.39h-4.76v-1.36h6.23c-.48.47-.97.93-1.48,1.36M54.35,53.57h-.78v-2.95c0-.38.3-.68.68-.68.05,0,.09,0,.14.01.31.06.54.34.54.67v1.85h0s0,.47,0,.47c-.19.21-.39.42-.58.63M49.49,49.94c.38,0,.68.3.68.68v2.95h-1.36v-2.95c0-.38.3-.68.68-.68M54.48,49.51c-.07-.01-.15-.02-.23-.02-.63,0-1.13.51-1.13,1.13v2.95h-2.5v-2.95c0-.63-.51-1.13-1.13-1.13s-1.13.51-1.13,1.13v2.95h-.68v-4.99h10.45c-.8,1.37-1.72,2.65-2.74,3.85v-1.8c0-.55-.39-1.01-.91-1.11M47.22,48.58v8.17h-.68v-8.17h.68ZM58.39,48.12h-11.85v-1.36h12.56c-.22.46-.46.92-.71,1.36M59.31,46.31h-.97v-2.95c0-.38.3-.68.68-.68s.68.3.68.68v2.06c-.13.3-.26.6-.39.89M54.25,42.68c.38,0,.68.3.68.68v2.95h-1.36v-2.95c0-.38.3-.68.68-.68M49.49,42.68c.38,0,.68.3.68.68v2.95h-1.36v-2.95c0-.38.3-.68.68-.68M59.02,42.22c-.63,0-1.13.51-1.13,1.13v2.95h-2.5v-2.95c0-.63-.51-1.13-1.13-1.13s-1.13.51-1.13,1.13v2.95h-2.5v-2.95c0-.63-.51-1.13-1.13-1.13s-1.13.51-1.13,1.13v2.95h-1.82v-8.17h15.05c-.16,1.43-.43,2.82-.81,4.18-.36-.6-1.01-1-1.76-1-.99,0-1.82.71-2,1.64l.45.09c.15-.73.79-1.28,1.56-1.28s1.39.53,1.55,1.24c-.13.42-.27.83-.42,1.24v-.9c0-.63-.51-1.13-1.13-1.13M59.02,34.05c.38,0,.68.3.68.68v2.95h-1.36v-2.95c0-.38.3-.68.68-.68M54.25,34.05c.38,0,.68.3.68.68v2.95h-1.36v-2.95c0-.38.3-.68.68-.68M49.49,34.05c.38,0,.68.3.68.68v2.95h-1.36v-2.95c0-.38.3-.68.68-.68M61.63,37.68h-1.47v-2.95c0-.63-.51-1.13-1.13-1.13s-1.13.51-1.13,1.13v2.95h-2.5v-2.95c0-.63-.51-1.13-1.13-1.13s-1.13.51-1.13,1.13v2.95h-2.5v-2.95c0-.63-.51-1.13-1.13-1.13s-1.13.51-1.13,1.13v2.95h-1.82v-8.63s0,0,0,0v-5.67h1.36v-.91c0-.13.1-.23.23-.23s.23.1.23.23v.91h1.36v-.91c0-.13.1-.23.23-.23s.23.1.23.23v.91h1.36v-.91c0-.13.1-.23.23-.23s.23.1.23.23v.91h1.36v-.91c0-.13.1-.23.23-.23s.23.1.23.23v.91h1.36v-.91c0-.13.1-.23.23-.23s.23.1.23.23v.91h1.36v-.91c0-.13.1-.23.23-.23s.23.1.23.23v.91h1.55c.12.23.23.47.34.7-.1-.01-.2-.02-.3-.02-.73,0-1.37.39-1.73.96-.12.19-.21.41-.26.64,0,.01,0,.02,0,.04l.44.09s.02-.09.03-.13h-.16.16c.07-.24.2-.46.36-.64.29-.31.71-.51,1.17-.51.19,0,.37.03.53.09.1.24.21.49.3.73-.13-.14-.3-.26-.49-.32h0c-.11-.04-.23-.06-.35-.06s-.24.02-.35.06h.5-.5c-.31.1-.57.34-.7.64h.53c.12-.15.31-.24.52-.24s.4.09.52.24c.1.12.16.27.16.44v1.48h.23-.23v1.47h-1.36v-2.95c0-.17.06-.32.16-.44h-.53c-.06.13-.09.28-.09.44v1.48h.23-.23v1.47h-2.5v-2.95c0-.16-.03-.3-.09-.44-.13-.3-.38-.54-.7-.64-.11-.04-.23-.06-.35-.06s-.24.02-.35.06h.5-.5c-.31.1-.57.34-.7.64h.53c.12-.15.31-.24.52-.24s.4.09.52.24c.1.12.16.27.16.44v1.48h.23-.23v1.47h-1.36v-2.95c0-.17.06-.32.16-.44h-.53c-.06.13-.09.28-.09.44v1.48h.23-.23v1.47h-2.5v-2.95c0-.16-.03-.3-.09-.44-.13-.3-.38-.54-.7-.64h0c-.11-.04-.23-.06-.35-.06s-.24.02-.35.06h.5-.5c-.31.1-.57.34-.7.64h.53c.12-.15.31-.24.52-.24s.4.09.52.24c.1.12.16.27.16.44v1.48h.23-.23v1.47h-1.36v-2.95c0-.17.06-.32.16-.44h-.53c-.06.13-.09.28-.09.44v1.48h.23-.23v1.47h-1.82v.45h14.6c.4,1.83.61,3.73.61,5.68,0,.84-.04,1.67-.12,2.5M61.03,29.06h-.88v-2.94c.35.96.64,1.94.88,2.94M58.75,22.93h-.87v-.45c0-.38-.3-.68-.68-.68s-.68.3-.68.68v.45h-.45v-.45c0-.38-.3-.68-.68-.68s-.68.3-.68.68v.45h-.45v-.45c0-.38-.3-.68-.68-.68s-.68.3-.68.68v.45h-.45v-.45c0-.38-.3-.68-.68-.68s-.68.3-.68.68v.45h-.45v-.45c0-.38-.3-.68-.68-.68s-.68.3-.68.68v.45h-.45v-.45c0-.38-.3-.68-.68-.68s-.68.3-.68.68v.45h-.45v-1.59h10.86c.32.52.62,1.05.9,1.59M57.57,20.88h-10.58v-.68h10.13c.15.22.3.45.45.68M56.8,19.75h-9.36v-1.13h-3.01l-9.25-8.1-9.25,8.1h-3.01v1.13h-9.36c4.82-6.73,12.7-11.12,21.62-11.12s16.8,4.39,21.62,11.12M13.25,20.2h10.13v.68h-10.58c.15-.23.3-.46.45-.68M23.38,19.75v-.68h2.72s9.08-7.95,9.08-7.95l9.08,7.95h2.72v.68h-3.01l-8.8-7.7-8.8,7.7h-3.01ZM23.84,20.2h1.59v2.72h-1.59v-2.72ZM24.29,50.33v-26.95h.68v27.01h-.68v-.07ZM24.29,50.74h3.63v.57h-3.63v-.57ZM24.29,51.64h3.63v.57h-3.63v-.57ZM24.29,52.55h3.63v.57h-3.63v-.57ZM24.29,53.46h3.63v.57h-3.63v-.57ZM24.29,54.37h3.63v.57h-3.63v-.57ZM24.29,55.28h3.63v.57h-3.63v-.57ZM27.92,56.75h-3.63v-.57h3.63v.57ZM29.51,49.25v-.61l1.59-1.34v.61l-1.59,1.34ZM29.51,53.57v-3.79l1.59-1.34v5.14h-1.59ZM31.1,55.39h-1.59v-1.36h1.59v1.36ZM28.6,46.31h-1.36v-3.41c0-.38.3-.68.68-.68s.68.3.68.68v3.41ZM29.74,42.22c.38,0,.68.3.68.68v3.41h-1.36v-3.41c0-.38.3-.68.68-.68M28.83,42.22c-.21-.28-.54-.45-.91-.45-.08,0-.15,0-.23.02.29-.29.69-.48,1.13-.48s.85.18,1.13.48c-.07-.01-.15-.02-.23-.02-.37,0-.7.18-.91.45M39.27,47.9v-.61l1.59,1.34v.61l-1.59-1.34ZM39.27,53.57v-5.14l1.59,1.34v3.79h-1.59ZM40.86,55.39h-1.59v-1.36h1.59v1.36ZM43.13,42.9v3.41h-1.36v-3.41c0-.38.3-.68.68-.68s.68.3.68.68M40.63,42.22c.38,0,.68.3.68.68v3.41h-1.36v-3.41c0-.38.3-.68.68-.68M40.41,41.79c.29-.29.69-.48,1.13-.48s.85.18,1.13.48c-.07-.01-.15-.02-.23-.02-.37,0-.7.18-.91.45-.21-.28-.54-.45-.91-.45-.08,0-.15,0-.23.02M42.45,51.3v-.57h3.63v.57h-3.63ZM42.45,52.21v-.57h3.63v.57h-3.63ZM42.45,52.55h3.63v.57h-3.63v-.57ZM42.45,53.46h3.63v.57h-3.63v-.57ZM42.45,54.37h3.63v.57h-3.63v-.57ZM46.08,56.18v.57h-3.63v-.57h3.63ZM42.45,55.84v-.57h3.63v.57h-3.63ZM46.08,23.38v27.01h-.68v-27.01h.68ZM44.95,20.2h1.59v2.72h-1.59v-2.72ZM39.95,29.06v-2.95c0-.38.3-.68.68-.68s.68.3.68.68v2.95h-1.36ZM35.41,29.06v-2.95c0-.38.3-.68.68-.68s.68.3.68.68v2.95h-1.36ZM42.41,29.06h-.64v-2.95c0-.38.3-.68.68-.68s.68.3.68.68v2.95h-.73ZM41.32,37.68h-1.36v-3.41c0-.38.3-.68.68-.68s.68.3.68.68v3.41ZM42.45,33.6c.38,0,.68.3.68.68v3.41h-1.36v-3.41c0-.38.3-.68.68-.68M41.54,33.6c-.21-.28-.54-.45-.91-.45-.08,0-.15,0-.23.02.29-.29.69-.48,1.13-.48s.85.18,1.13.48c-.07-.01-.15-.02-.23-.02-.37,0-.7.18-.91.45M36.78,34.28v3.41h-1.36v-3.41c0-.38.3-.68.68-.68s.68.3.68.68M34.28,33.6c.38,0,.68.3.68.68v3.41h-1.36v-3.41c0-.38.3-.68.68-.68M28.6,37.68h-1.36v-3.41c0-.38.3-.68.68-.68s.68.3.68.68v3.41ZM29.74,33.6c.38,0,.68.3.68.68v3.41h-1.36v-3.41c0-.38.3-.68.68-.68M28.83,33.6c-.21-.28-.54-.45-.91-.45-.08,0-.15,0-.23.02.29-.29.69-.48,1.13-.48s.85.18,1.13.48c-.07-.01-.15-.02-.23-.02-.37,0-.7.18-.91.45M34.28,25.42c.38,0,.68.3.68.68v2.95h-1.36v-2.95c0-.38.3-.68.68-.68M29.74,25.42c.38,0,.68.3.68.68v2.95h-1.36v-2.95c0-.38.3-.68.68-.68M27.92,25.42c.38,0,.68.3.68.68v2.95h-1.36v-2.95c0-.38.3-.68.68-.68M44.95,23.38v5.68h-1.36v-2.95c0-.63-.51-1.13-1.13-1.13-.37,0-.7.18-.91.45-.21-.28-.54-.45-.91-.45-.63,0-1.14.51-1.14,1.13v2.95h1.91-4.18v-2.95c0-.63-.51-1.13-1.13-1.13-.37,0-.7.18-.91.45v4.09h9.76v8.17h-1.36s0-3.4,0-3.4c0-1.13-.92-2.04-2.04-2.04s-2.04.91-2.04,2.04c0,2.95,0,3.4,0,3.4h-2.27s0-3.4,0-3.4c0-1.13-.91-2.04-2.04-2.04s-2.04.91-2.04,2.04v3.41h-2.27v-3.41c0-1.13-.92-2.04-2.04-2.04s-2.04.91-2.04,2.04v3.41h-1.36v-8.17h9.76v-4.09c-.21-.28-.54-.45-.91-.45-.63,0-1.14.51-1.14,1.13v2.95h-2.27v-2.95c0-.63-.51-1.13-1.14-1.13-.37,0-.7.18-.91.45-.21-.28-.54-.45-.91-.45-.63,0-1.13.51-1.13,1.13v2.95h-1.36v-5.68h.45v-1.3c.02-.1.12-.18.23-.18.13,0,.23.1.23.23v.68h1.36v-2.27c0-.12.1-.23.23-.23s.23.1.23.23v.68h1.36v-2.27c0-.13.1-.23.23-.23s.23.1.23.23v.68h1.36v-2.27c0-.13.1-.23.23-.23s.23.1.23.23v.68h1.36v-2.27c0-.13.1-.23.23-.23s.23.1.23.23v.68h1.36v-2.27c0-.13.1-.23.23-.23s.23.1.23.23v2.27s1.36,0,1.36,0v-.68c0-.13.1-.23.23-.23s.23.1.23.23v2.27s1.36,0,1.36,0v-.68c0-.13.1-.23.23-.23s.23.1.23.23v2.27s1.36,0,1.36,0v-.68c0-.13.1-.23.23-.23s.23.1.23.23v2.27s1.36,0,1.36,0v-.68c0-.12.1-.23.23-.23s.23.1.23.23v2.27h1.36v-.68c0-.13.1-.23.23-.23.12,0,.21.09.23.2v1.27h.45ZM27.24,20.54v1.82h-.45v-.23c0-.38-.3-.68-.68-.68-.08,0-.16.01-.23.04v-1.29h.68l8.63-7.55,8.63,7.55h.68v1.29c-.07-.02-.15-.04-.23-.04-.38,0-.68.3-.68.68v.23h-.45v-1.82c0-.38-.3-.68-.68-.68s-.68.3-.68.68v.23h-.45v-1.82c0-.38-.3-.68-.68-.68s-.68.3-.68.68v.23h-.45v-1.82c0-.38-.3-.68-.68-.68s-.68.3-.68.68v.23h-.45v-1.82c0-.38-.3-.68-.68-.68s-.68.3-.68.68v.23h-.45v-1.82c0-.38-.3-.68-.68-.68s-.68.3-.68.68v1.82h-.45v-.23c0-.38-.3-.68-.68-.68s-.68.3-.68.68v1.82s-.45,0-.45,0v-.23c0-.38-.3-.68-.68-.68s-.68.3-.68.68v1.82h-.45v-.23c0-.38-.3-.68-.68-.68s-.68.3-.68.68v1.82h-.45v-.23c0-.38-.3-.68-.68-.68s-.68.3-.68.68M42,48.58v8.17h-.68v-8.17h.68ZM40.88,48.12l-1.61-1.36h5.67v3.63h-2.5v-2.27h-1.57ZM38.46,53.77v-1.33h-.33v-5.68h.68v8.63h-.68v-1.55l.33-.07ZM35.42,50.11l.9.45-.09,1.42h-2.07l-.09-1.42.9-.45-.42-.96.65-.49.65.49-.42.96ZM33.16,51.99v.45h-.47v-4.54h4.99v4.54h-.47v-.45h-.57l.11-1.68-.79-.4.39-.89-1.17-.89-1.17.89.39.89-.79.4.11,1.68h-.57ZM37.68,46.76v.68h-4.99v-.68h4.99ZM36.78,46.31h-.23v-3.63h.45v3.63h-.23ZM34.51,42.68v-.45h-.23c0-.5.41-.91.91-.91s.91.41.91.91h-.23v.45h.23v3.63h-1.82v-3.63h.23ZM33.82,42.68v3.63h-.45v-3.63h.45ZM33.14,42.22v-1.13l2.04-1.52,2.04,1.52v1.13h-.68c0-.75-.61-1.36-1.36-1.36s-1.36.61-1.36,1.36h-.68ZM37.68,53.94v1.45h-1.15v-1.2l1.15-.25ZM36.11,58.11h-1.84v-3.89h1.84v3.89ZM32.33,53.43v-.56h1.25v-.45h3.21v.45h1.25v.56l-1.74.37h-2.23l-1.74-.37ZM32.69,54.71v-.77l1.15.25v1.2h-1.15v-.68ZM30.87,46.31v-3.41c0-1.13-.92-2.04-2.04-2.04s-2.04.91-2.04,2.04v3.41h-1.36v-8.17h9.76v-4.54c-.21-.28-.54-.45-.91-.45-.08,0-.15,0-.23.02.29-.29.69-.48,1.13-.48s.85.18,1.13.48c-.07-.01-.15-.02-.23-.02-.37,0-.7.18-.91.45v4.54h9.76v8.17h-1.36v-3.41c0-1.13-.91-2.04-2.04-2.04s-2.04.91-2.04,2.04v3.41h-2.04v-3.63h.45v-.45h-.23v-.91h.45v-.45h-.45l-2.27-1.73v-.54h-.45v.54l-2.27,1.73h-.45v.45h.45v.91h-.23v.45h.45v3.63h-2.04ZM31.91,52.44v1.33l.33.07v1.55h-.68v-8.63h.68v5.68h-.33ZM29.06,49.94v6.81h-.68v-6.42h0v-1.75h.68v1.36ZM27.92,48.12v2.27h-2.5v-3.63h5.67l-1.61,1.36h-1.57ZM12.52,21.34h10.86v1.59h-.45v-.45c0-.38-.31-.68-.68-.68s-.68.3-.68.68v.45h-.45v-.45c0-.38-.3-.68-.68-.68s-.68.3-.68.68v.45h-.45v-.45c0-.38-.31-.68-.68-.68s-.68.3-.68.68v.45h-.45v-.45c0-.38-.31-.68-.68-.68s-.68.3-.68.68v.45h-.45v-.45c0-.38-.3-.68-.68-.68s-.68.3-.68.68v.45h-.45v-.45c0-.38-.31-.68-.68-.68s-.68.3-.68.68v.45h-.87c.28-.54.58-1.07.9-1.59M10.22,29.06h-.88c.24-1,.53-1.98.88-2.94v2.94ZM7.97,35.17c0,15.03,12.18,27.21,27.21,27.21s27.21-12.18,27.21-27.21S50.22,7.96,35.19,7.96,7.97,20.14,7.97,35.17M10.53,56.71l-.12.12c.09.08.18.17.27.26.06.06.13.12.19.18.17.17.34.33.51.51.09.09.18.19.27.28l.12-.12c-.1-.11-.2-.23-.29-.36-.06-.08-.06-.14-.06-.22,0-.08.03-.17.1-.28.07-.11.18-.24.34-.41.13-.13,1.13-1.27,1.63-1.5.17-.08.33-.12.48-.13.15,0,.31.02.45.09.29.13.54.38.69.66.07.13.1.27.1.41,0,.14-.04.3-.12.46-.08.16-.22.34-.41.53l-1.44,1.45c-.08.08-.15.13-.2.17-.06.04-.11.05-.16.05-.05,0-.11-.02-.18-.06-.11-.06-.2-.15-.3-.23l-.12.12c.11.1.21.2.31.3.27.24.52.5.77.76.1.1.2.2.3.31l.12-.12c-.08-.09-.17-.19-.23-.3-.04-.07-.06-.13-.06-.17,0-.05.01-.1.05-.16.04-.06.1-.13.17-.2l1.61-1.62c.15-.15.26-.3.32-.45.06-.15.09-.29.09-.43,0-.14-.02-.28-.07-.4-.05-.13-.11-.24-.18-.35-.07-.11-.14-.21-.22-.3-.19-.22-.39-.41-.64-.56-.17-.1-.35-.17-.54-.2-.2-.03-.41,0-.62.07-.22.07-.44.22-.66.44l-1.16,1.17c-.13.13-.45.45-.64.5-.07.01-.13,0-.18-.03-.11-.07-.2-.15-.3-.24M7.02,51.84l-.15.1c.07.09.13.18.2.27.18.24.36.5.52.76.07.1.13.2.2.31l.15-.1c-.08-.13-.15-.24-.2-.38-.03-.09-.02-.14,0-.21.02-.07.08-.15.17-.23.1-.09.24-.19.41-.31l1.71-1.15.02-.07-1.04,4.25.49.73.15-.1c-.07-.11-.13-.22-.18-.34-.02-.06-.02-.13.02-.2.03-.07.11-.17.24-.27.48-.39,1.83-1.27,2.03-1.4.15-.1.28-.18.4-.24.11-.05.2-.08.28-.09.07,0,.14,0,.21.05.1.07.18.17.26.27l.15-.1c-.06-.09-.12-.17-.18-.26l-.12-.18c-.09-.11-.16-.23-.24-.35l-.15-.23c-.07-.11-.14-.21-.21-.32l-.15.1c.07.12.14.23.19.36.03.08.02.14,0,.21-.02.07-.08.15-.17.23-.1.09-.23.19-.42.32l-1.69,1.14-.02.07,1.08-4.34-.1-.15-2.71,1.83c-.15.1-.28.18-.39.24-.11.06-.2.09-.28.09-.08,0-.15-.01-.21-.06-.11-.07-.19-.17-.26-.27M5.62,49.11l-.16.08c.07.13.14.25.2.38.18.31.34.64.49.96.07.13.13.26.19.39l.16-.08c-.05-.11-.1-.23-.13-.35-.02-.08-.02-.14,0-.18.01-.05.04-.09.1-.14.05-.04.13-.09.23-.14l2.54-1.3c.1-.05.18-.08.25-.1.13-.04.22,0,.31.11.08.1.14.2.21.31l.16-.08c-.07-.13-.13-.25-.2-.38l-.14-.27c-.08-.14-.15-.28-.22-.43l-.14-.27c-.06-.13-.13-.26-.19-.39l-.16.08c.05.11.1.23.13.35.01.07.01.14,0,.18-.02.05-.05.09-.1.13-.06.05-.13.09-.23.14l-2.54,1.3c-.1.05-.18.08-.25.1-.07.02-.12.02-.17,0-.05-.02-.1-.05-.15-.11-.09-.09-.15-.2-.21-.31M3.76,44.37l-.17.06c.03.08.07.16.1.24.11.24.2.49.27.74.04.1.07.2.1.3l.17-.06c-.03-.1-.08-.23-.04-.34.04-.12.15-.14.26-.15.06,0,.15,0,.26,0,.11,0,2.73.03,2.73.03l.07-.04c-.64.56-1.28,1.12-1.93,1.67-.21.18-.36.31-.46.39,0,0-.17.16-.21.13-.02-.01-.04-.04-.06-.07-.02-.04-.04-.09-.06-.14-.03-.08-.06-.16-.09-.23l-.17.06c.05.12.1.25.14.37.12.29.23.59.33.9.04.11.08.22.11.33l.17-.06c-.02-.08-.04-.16-.05-.24,0-.04,0-.08.02-.11.02-.03.05-.08.11-.13.05-.06.13-.13.22-.21l2.92-2.63-.09-.25-3.52-.06c-.19,0-.35,0-.48-.02-.12-.01-.22-.03-.3-.06-.08-.03-.14-.07-.18-.13-.08-.08-.12-.19-.17-.29M2.96,40.32c-.1.02-.2.03-.31.05.05.13.09.27.13.4.01.06.03.12.04.18.07.33.14.66.22,1,.03.15.06.29.1.42.06.29.13.57.18.86.03.14.06.28.08.42l.17-.04c-.02-.12-.04-.25-.03-.37,0-.08.02-.14.05-.18.02-.04.07-.08.13-.1.06-.03.15-.05.26-.08l2.8-.6c.1-.02.2-.03.27-.04.14,0,.21.07.28.18.05.11.09.24.12.36l.18-.04c-.03-.14-.06-.28-.1-.42l-.06-.3c-.03-.1-.04-.18-.06-.24l-.35-1.72-.03-.14c0-.06-.02-.12-.03-.18,0-.06-.02-.13-.03-.19,0-.08-.02-.15-.03-.23-.2.03-.41.05-.61.08-.21.02-.41.04-.62.05l.04.17c.17.01.34.04.5.09.12.04.23.1.31.17.09.07.16.16.21.27.12.24.19.63.2.9,0,.13-.02.23-.07.3-.05.07-.12.14-.23.19-.31.13-1.17.29-1.36.33-.05-.25-.13-.53-.14-.79,0-.11,0-.2.04-.28.03-.07.07-.13.14-.17.1-.07.22-.11.33-.14l-.04-.18c-.12.03-.25.06-.37.09-.08.02-.16.04-.24.06l-.37.08c-.08.01-.16.03-.24.04-.12.02-.24.04-.36.06l.04.18c.11-.02.21-.02.32,0,.08.01.16.05.23.11.07.06.13.14.2.25.12.23.16.5.21.74l-1.7.36c-.08-.35-.17-.71-.17-1.07,0-.19.03-.34.08-.45.05-.11.12-.2.22-.27.13-.09.26-.17.4-.24l-.04-.17c-.12.03-.23.06-.35.09,0,0-.51.11-.56.12M2.88,36.4c.27-.24.74-.32,1.08-.21.11.03.21.09.3.16.09.07.16.17.22.28.1.21.1.44.1.66,0,.06-.01.12-.02.18l-1.87.06s0-.06-.02-.1c0-.05-.01-.1-.02-.16-.03-.31-.03-.65.23-.88M2.47,36.27c-.13.39-.08,1.01-.04,1.43,0,.25.02.5.02.75,0,.14,0,.29,0,.43h.18c0-.13,0-.26.03-.38.01-.08.04-.13.08-.17.03-.04.08-.07.15-.08.07-.02.16-.03.27-.03l2.85-.1c.11,0,.2,0,.27.01.14.02.2.1.24.23.03.12.04.25.06.37h.18c0-.15-.01-.29-.02-.44v-.3c-.02-.15-.03-.31-.03-.46v-.27c0-.13-.01-.26-.02-.38h-.18c0,.12,0,.24-.03.36-.02.06-.04.1-.07.13-.03.03-.08.05-.14.06-.47.04-1.01.04-1.44.06,0-.03,0-.06,0-.08,0-.04,0-.09,0-.13,0-.04,0-.08,0-.12v-.11s1.47-1.14,1.47-1.14c.07-.05.12-.1.17-.15.05-.06.09-.14.12-.24.08-.3.05-.77.04-1.08h-.17c0,.08-.02.14-.03.21,0,.04-.02.1-.04.15-.02.05-.05.1-.08.15-.03.06-.11.14-.24.25-.13.11-.29.24-.46.37-.18.13-.36.27-.55.41-.16.12-.3.23-.44.33-.05-.15-.11-.29-.19-.42-.04-.06-.09-.12-.14-.18-.06-.07-.12-.12-.2-.17-.08-.05-.16-.08-.25-.11-.24-.07-.53-.04-.75.06-.14.06-.27.15-.37.28-.11.13-.19.29-.24.48M2.97,31.14l-.31-.04v.13c-.02.09-.04.17-.06.23-.02.07-.04.14-.07.21-.02.07-.04.15-.06.24-.06.27-.07.57,0,.84.04.17.1.32.19.46.09.13.2.24.33.33.24.16.6.2.87.11.12-.04.24-.11.34-.2.11-.09.21-.2.32-.33.1-.13.21-.28.33-.45.11-.16.21-.29.29-.4.09-.11.17-.19.25-.25.07-.06.15-.1.22-.13.17-.06.38-.02.54.04.09.03.17.08.23.15.06.06.11.15.15.26.08.24.03.62-.09.84-.07.12-.16.22-.27.3-.11.08-.23.14-.36.19-.15.05-.3.1-.45.13v.18c.19-.01.4-.02.61,0,.2,0,.41.01.61.02,0-.12.02-.23.05-.35.02-.08.04-.16.06-.24.11-.38.15-.78.08-1.17-.04-.2-.11-.37-.2-.53-.1-.16-.22-.29-.37-.39-.25-.17-.62-.24-.91-.14-.12.04-.23.1-.33.2-.1.09-.21.2-.32.35-.11.14-.23.3-.38.5-.12.17-.23.31-.32.41-.09.1-.17.18-.24.23-.07.05-.13.08-.19.09-.15.03-.32,0-.46-.05-.08-.03-.16-.08-.22-.13-.06-.06-.11-.13-.14-.21-.09-.2-.02-.54.09-.71.07-.11.15-.2.25-.26.1-.06.22-.11.36-.14.15-.04.3-.07.46-.09v-.17c-.11,0-.23,0-.35-.02l-.3-.03-.24-.02ZM3.39,27.6l-.18-.04c-.03.14-.05.29-.08.43-.06.36-.14.71-.22,1.06-.03.14-.06.28-.1.42l.18.04c.03-.12.07-.24.12-.35.03-.07.07-.12.11-.14.04-.03.09-.04.16-.04.07,0,.16.01.27.03l2.8.59c.11.02.19.05.26.08.13.06.17.15.18.28,0,.13-.02.25-.04.37l.18.04c.03-.14.06-.28.08-.42l.06-.29c.03-.16.06-.31.1-.47l.06-.29c.03-.14.07-.28.1-.43l-.18-.04c-.03.12-.07.24-.12.36-.04.07-.07.11-.11.14-.04.03-.1.04-.16.04-.08,0-.17-.01-.27-.03l-2.8-.59c-.11-.02-.19-.05-.26-.08-.06-.03-.1-.06-.13-.1-.03-.04-.05-.1-.05-.18,0-.13.01-.25.03-.37M5.86,23.27c-.12-.04-.25-.07-.37-.11-.19-.07-.38-.13-.57-.2-.1-.04-.19-.08-.29-.11-.02.14-.06.27-.1.41-.02.06-.04.12-.05.17-.08.24-.17.48-.24.73l-.08.25-.17.49-.08.24c-.08.2-.14.4-.21.6l-.05.14c-.02.05-.04.11-.07.17l-.07.17c-.03.07-.07.14-.1.21.1.03.2.06.3.09.19.06.38.12.57.19.12.04.24.09.36.13l.06-.16c-.14-.09-.27-.19-.4-.3-.09-.09-.17-.18-.21-.28-.05-.1-.07-.22-.06-.36,0-.24.1-.47.17-.69.16.05.34.1.52.17.88.29,1.76.6,2.64.9.1.04.19.07.25.11.06.03.09.07.12.12.02.04.03.1.03.18-.01.12-.05.25-.08.37l.17.06c.05-.13.09-.27.13-.41l.1-.29c.05-.15.1-.3.16-.45l.1-.28c.05-.14.1-.27.15-.41l-.17-.06c-.05.12-.1.24-.16.34-.04.06-.09.1-.13.13-.05.02-.1.03-.16.02-.08,0-.16-.03-.27-.07l-2.06-.7-.58-.2c-.18-.07-.36-.13-.51-.19.08-.22.15-.47.29-.66.08-.1.17-.18.26-.22.1-.05.21-.08.34-.09.17-.01.33,0,.5,0l.05-.16ZM8.23,21.17c-.3.68-.54,1.08-.54,1.08l-1.12-1.27-.06-.02.27.04c.35.04.69.07,1.04.12.15.02.28.03.41.05M9.75,20.65l-3.87-.42-.12.24,2.32,2.68c.11.13.21.25.28.36.07.1.12.19.16.28.03.08.04.17.04.25,0,.12-.05.22-.1.33l.15.08c.04-.08.08-.16.11-.24l.08-.16c.05-.12.11-.24.18-.35l.11-.21c.06-.1.11-.2.16-.3l-.16-.08c-.05.09-.1.22-.21.27-.1.05-.18,0-.24-.06-.04-.04-.09-.09-.15-.16-.07-.08-.15-.17-.25-.28-.1-.11-.22-.25-.35-.4.03-.07.05-.1.08-.18l.12-.24c.07-.15.25-.49.33-.64.03-.07.07-.13.09-.17l.02-.04c.14.02.28.04.43.06.16.02.3.04.43.05.13.01.24.03.33.05.04,0,.09,0,.13.02.02,0,.03.02.03.04,0,.02,0,.05-.01.09-.01.04-.03.09-.06.15l-.11.22.16.08c.06-.11.11-.23.17-.34l.12-.24c.06-.13.12-.26.2-.39l.12-.23c.06-.11.12-.22.18-.33l-.16-.08c-.04.07-.09.15-.14.22-.03.03-.07.06-.12.08-.05.02-.1.03-.18.03-.08,0-.18,0-.3-.02M12.02,18.48c.06-.19.1-.37.09-.55,0-.19-.05-.36-.12-.52-.13-.27-.42-.52-.72-.58-.12-.03-.25-.03-.39,0-.14.02-.29.07-.45.14-.16.07-.36.15-.58.24-.19.09-.35.15-.48.2-.13.04-.24.07-.33.08-.09.01-.16,0-.21-.01-.14-.05-.28-.15-.37-.27-.06-.07-.1-.14-.12-.22-.02-.08-.03-.16-.02-.25.02-.22.25-.48.44-.57.11-.06.23-.09.35-.1.12,0,.25.01.38.06.15.04.3.09.44.15l.1-.14c-.1-.06-.21-.13-.31-.2-.04-.03-.42-.3-.45-.31l-.24-.19-.07.1c-.05.07-.11.13-.16.18-.05.05-.11.1-.16.15-.06.05-.11.11-.17.18-.19.2-.35.46-.43.73-.05.16-.07.33-.07.49,0,.16.05.31.12.45.13.26.42.47.7.53.12.02.26.02.4,0,.14-.02.29-.07.44-.13.15-.06.32-.14.51-.22.17-.08.32-.15.45-.2.13-.05.24-.08.34-.1.1-.02.18-.02.25,0,.18.03.34.17.44.31.06.07.1.15.13.24.02.09.02.19,0,.3-.05.25-.28.55-.5.68-.12.07-.25.11-.38.13-.13.02-.27.01-.41-.01-.15-.03-.3-.07-.45-.11l-.1.14c.19.09.37.19.54.3.17.11.35.21.52.32.07-.1.14-.19.22-.28.06-.06.11-.12.17-.18.29-.27.52-.6.65-.98M14.46,11.4l.13-.12c-.09-.09-.17-.17-.26-.26l-.2-.22-.16-.18-.2-.24-.09.09c-.07.06-.13.1-.19.14-.06.04-.13.07-.19.11-.07.04-.13.08-.21.13-.23.16-.44.38-.57.62-.09.15-.14.31-.17.47-.03.16-.02.31.02.47.07.28.3.55.57.67.12.05.25.08.39.09.14,0,.29,0,.46-.03.16-.03.35-.07.55-.11.19-.04.35-.07.49-.09.14-.02.26-.03.35-.02.1,0,.18.02.25.06.16.07.29.24.37.39.04.08.07.17.07.27,0,.09-.02.19-.06.29-.11.23-.4.48-.64.56-.13.04-.27.05-.4.04-.13-.01-.26-.05-.39-.1-.15-.06-.28-.13-.42-.21l-.13.12c.16.13.32.27.46.41.15.14.29.28.44.43.09-.08.17-.16.27-.22.07-.05.14-.1.2-.14.34-.21.64-.47.85-.81.1-.17.17-.34.21-.52.04-.18.03-.36,0-.53-.07-.3-.3-.6-.58-.72-.11-.05-.24-.08-.38-.08-.14,0-.29,0-.47.04-.17.03-.38.07-.62.11-.2.04-.37.07-.51.09-.13.01-.25.01-.34,0-.09,0-.15-.03-.2-.06-.13-.08-.24-.21-.3-.34-.04-.08-.06-.16-.07-.24,0-.08,0-.17.04-.25.07-.21.35-.41.55-.47.12-.04.25-.04.36-.02.12.02.24.07.36.14.14.07.27.16.4.25M16.99,8.79c-.11-.16-.21-.31-.31-.45.19-.14.39-.3.62-.37.12-.04.24-.05.34-.03.11.02.22.06.33.12.14.09.28.19.41.29l.14-.1c-.08-.1-.16-.2-.24-.31l-.21-.29-.14-.2c-.06-.09-.11-.17-.17-.26-.1.1-.21.19-.32.28-.05.04-.1.07-.14.11-.21.15-.42.3-.62.45-.21.15-.42.3-.64.46l-.21.15c-.18.12-.35.24-.52.37l-.12.08s-.1.07-.15.1l-.16.1c-.07.04-.14.08-.21.11.06.08.13.16.19.24.12.16.24.32.35.49.08.11.15.21.22.32l.14-.1c-.06-.16-.11-.31-.15-.47-.03-.12-.03-.24-.01-.35.02-.11.07-.22.16-.33.14-.19.35-.32.54-.46.1.13.21.28.33.44.55.74,1.09,1.51,1.63,2.26.06.09.11.17.14.23.03.06.03.11.02.17,0,.04-.03.1-.08.16-.08.1-.18.17-.28.25l.1.15c.12-.08.23-.17.34-.25l.25-.18c.13-.1.26-.19.39-.28l.24-.18c.12-.08.24-.16.36-.25l-.1-.15c-.11.07-.21.14-.33.19-.07.02-.13.03-.18.03-.05-.01-.1-.04-.14-.08-.05-.05-.11-.12-.18-.21l-1.27-1.77-.35-.49ZM23.53,8.84c.09-.18.14-.38.14-.61,0-.23-.06-.49-.2-.77l-.71-1.49c-.08-.16-.28-.57-.26-.77,0-.07.04-.12.09-.16.1-.08.21-.14.32-.2l-.08-.16c-.11.06-.22.11-.33.17-.07.04-.15.08-.23.12-.21.1-.43.21-.65.31-.12.06-.24.11-.35.16l.08.16c.14-.06.29-.11.44-.16.1-.03.15-.01.22.01.07.03.15.09.23.19.08.1.17.25.27.46.08.16.82,1.49.87,2.04.02.18,0,.35-.04.5-.05.15-.12.28-.23.4-.22.23-.54.38-.85.43-.15.02-.29,0-.42-.04-.14-.05-.27-.14-.39-.27-.12-.13-.25-.32-.36-.56l-.88-1.84c-.05-.1-.08-.18-.1-.25-.02-.07-.01-.12,0-.17.02-.05.05-.1.11-.15.1-.08.2-.14.31-.2l-.08-.16c-.13.07-.26.13-.39.2-.32.17-.65.33-.98.47-.13.06-.26.12-.39.18l.08.16c.11-.05.23-.1.36-.12.08-.02.14-.01.18,0,.04.01.09.05.13.1.04.05.09.13.13.23l.99,2.06c.09.19.2.34.32.45.12.1.24.18.38.23.13.05.27.07.4.07.14,0,.27-.02.39-.05.13-.03.24-.07.36-.11.27-.11.51-.23.74-.42.15-.12.28-.27.37-.44M28.1,6.86c-.21.36-.63.64-1.26.81-.23.06-.39.05-.49-.02-.11-.08-.19-.2-.25-.4l-.86-3.07s.04-.02.07-.03c.06-.02.12-.04.18-.06.06-.02.12-.04.18-.06.28-.1.57-.15.87-.14.24,0,.46.05.67.16.2.1.39.26.55.47.43.56.7,1.69.33,2.33M28.7,6.84c.31-.47.37-1.05.18-1.73-.19-.7-.56-1.16-1.1-1.37-.53-.21-1.2-.2-2,.02-.14.04-.27.08-.39.11-.35.11-.71.21-1.07.3-.14.04-.28.07-.42.11l.05.17c.12-.03.25-.05.37-.05.08,0,.14.01.18.04.04.02.08.06.11.12.03.06.06.14.09.25l.77,2.75c.03.1.05.19.05.27,0,.14-.05.22-.17.29-.11.06-.23.1-.35.14l.05.17c.14-.04.28-.08.42-.12l.3-.08c.15-.05.3-.09.46-.13.08-.02.17-.05.26-.07l.25-.07c.7-.2,1.52-.46,1.95-1.11M31.62,6.9c.14-.01.29-.03.43-.05l-.02-.18c-.12,0-.25.02-.37,0-.08-.01-.13-.03-.17-.06-.04-.03-.07-.08-.09-.14-.02-.07-.04-.16-.06-.27l-.38-2.83c-.01-.11-.02-.2-.01-.27,0-.07.02-.12.05-.16.03-.04.08-.08.15-.1.12-.05.24-.07.36-.1l-.02-.18c-.14.02-.29.05-.43.06-.36.06-.71.11-1.07.14-.14.02-.28.03-.43.05l.02.18c.12,0,.25-.02.38,0,.08,0,.14.03.17.06.04.03.07.07.1.14.02.07.04.15.06.26l.38,2.83c.01.11.02.2.01.27,0,.14-.08.21-.2.26-.12.04-.24.07-.36.09l.02.18c.14-.02.28-.04.42-.06l.3-.04c.16-.03.31-.05.48-.06l.3-.04ZM36.4,5.41c-.08.25-.18.46-.31.62-.13.16-.28.28-.46.36-.36.17-.78.15-1.14-.02-.18-.09-.34-.23-.48-.4-.14-.18-.24-.39-.32-.64-.16-.5-.15-1.21.01-1.71.08-.25.19-.44.32-.6.13-.16.29-.27.46-.35.36-.16.77-.15,1.11.02.18.09.35.21.48.38.14.16.25.37.33.61.17.5.16,1.21,0,1.71M37.11,5.37c.23-.56.27-1.33,0-1.88-.12-.26-.29-.48-.49-.65-.21-.17-.44-.3-.71-.38-.54-.18-1.15-.18-1.69.02-.27.11-.51.26-.71.46-.21.2-.37.44-.49.72-.24.56-.26,1.37.01,1.93.13.27.31.49.52.66.21.17.45.29.7.38.54.16,1.12.17,1.66-.04.56-.23.97-.66,1.2-1.22M40.19,4.88c-.22.06-.45.02-.67-.03-.06-.01-.12-.03-.17-.05l.28-1.85s.07,0,.1,0c.05,0,.1,0,.17.01.31.03.64.09.82.39.19.3.18.78,0,1.1-.05.1-.12.19-.21.26-.09.07-.19.13-.32.17M41.97,7.41l.02-.17c-.07-.02-.13-.04-.19-.07-.04-.02-.09-.04-.14-.07-.05-.03-.09-.06-.14-.11-.05-.04-.12-.13-.21-.28-.09-.15-.18-.33-.28-.52-.1-.2-.2-.4-.31-.61-.09-.18-.17-.34-.25-.49.16-.02.31-.06.45-.11.07-.03.14-.07.2-.11.07-.04.14-.1.2-.17.06-.07.11-.14.15-.23.12-.22.13-.51.08-.75-.03-.15-.1-.29-.21-.42-.11-.13-.25-.24-.43-.33-.36-.2-.98-.26-1.4-.3-.25-.04-.5-.07-.74-.12-.14-.02-.28-.05-.42-.07l-.03.18c.12.02.25.05.36.1.07.03.12.07.15.1.03.04.05.09.05.16,0,.07,0,.16-.02.27l-.42,2.83c-.02.11-.04.2-.06.27-.05.13-.14.18-.27.19-.12.01-.25,0-.37-.01l-.03.18c.14.02.28.04.42.06l.3.04c.15.02.31.04.46.07l.27.04c.13.02.25.04.38.06l.03-.18c-.12-.02-.23-.05-.34-.09-.06-.03-.09-.06-.11-.1-.02-.04-.03-.09-.03-.15.05-.47.14-1,.2-1.43.03,0,.05.02.08.02.04,0,.09.02.12.03.04,0,.08.01.11.02l.11.02.85,1.66c.04.07.08.14.12.2.05.06.12.12.21.16.29.13.75.19,1.06.23M47.58,4.91l.06-.17c-.12-.03-.24-.07-.35-.11-.08-.02-.17-.05-.25-.08-.23-.08-.46-.15-.68-.23-.12-.04-.25-.09-.37-.13l-.06.17c.14.06.29.12.42.19.09.05.12.09.15.17.03.07.05.16.03.29-.01.13-.05.3-.12.51-.06.17-.45,1.64-.79,2.07-.11.15-.24.26-.38.33-.14.07-.28.11-.44.12-.32.01-.65-.1-.91-.29-.12-.09-.21-.19-.28-.32-.06-.13-.09-.29-.09-.46,0-.18.04-.4.13-.65l.64-1.94c.03-.1.07-.19.1-.25.03-.06.08-.1.12-.12.05-.02.11-.03.18-.03.13,0,.25.04.37.07l.06-.17c-.14-.04-.28-.08-.41-.13-.35-.1-.69-.21-1.03-.34-.14-.04-.27-.09-.41-.14l-.06.17c.12.05.23.09.34.16.07.04.11.09.13.13.02.04.03.1.03.16,0,.07-.03.16-.06.26l-.72,2.16c-.07.2-.1.38-.09.55.01.16.05.3.11.43.06.13.14.24.24.33.1.09.2.17.31.24.11.07.22.12.33.17.27.11.53.19.82.22.2.02.39,0,.57-.07.19-.07.36-.18.52-.34.17-.16.3-.4.4-.69l.52-1.56c.06-.17.2-.61.35-.73.05-.04.11-.06.18-.05.13.01.25.05.37.08M53.6,8.19l.08-.14-1-.59-3.04,2.25-.02.06.32-3.91-1-.59-.09.14c.11.07.22.14.31.24.05.05.07.11.07.19,0,.08-.03.2-.1.35-.27.57-1.11,1.94-1.23,2.15-.09.16-.18.29-.25.39-.07.09-.14.16-.21.2-.06.04-.13.05-.21.05-.12-.02-.24-.07-.34-.13l-.09.15c.09.05.18.1.27.15l.19.11c.12.06.24.13.35.21l.2.12c.09.06.22.14.31.19l.09-.16c-.11-.07-.23-.15-.33-.24-.05-.05-.07-.11-.08-.17,0-.07.03-.15.08-.26.31-.61,1.1-1.89,1.31-2.26,0,0,.01-.1.01-.1l-.3,3.73.19.11,3.09-2.27-1.39,2.37c-.06.09-.11.17-.15.23-.04.05-.08.08-.12.1-.04.01-.09.02-.15,0-.11-.03-.21-.08-.3-.13l-.09.15c.11.06.21.12.32.18l.23.13c.14.07.27.15.4.23l.26.15c.12.08.25.15.37.23l.09-.15c-.1-.07-.21-.14-.3-.22-.05-.06-.08-.11-.1-.15-.01-.05-.01-.1,0-.16.02-.07.06-.15.12-.25l1.46-2.48c.06-.09.1-.17.15-.23.04-.05.08-.08.11-.1.04-.01.09-.02.16,0,.11.03.22.09.33.14M59.11,13.07l.16-.16-1.85-1.84s-.08-.08-.12-.13c-.04-.04-.08-.09-.12-.13-.05-.06-.1-.12-.15-.19-.27.32-.57.62-.88.89l.13.13c.13-.11.27-.2.43-.26.12-.04.25-.04.39,0,.14.04.31.13.5.28.33.25.63.55.92.85l-4.51.9-.17.17,2.02,2.01s.08.09.12.13c.04.05.09.1.12.14.05.06.1.12.14.18.16-.13.31-.27.47-.4.16-.13.33-.26.49-.38l-.13-.13c-.14.1-.27.19-.44.23-.12.03-.26.02-.42-.04-.16-.06-.35-.17-.57-.34-.39-.3-.73-.66-1.08-1l4.54-.9ZM59.69,17.35c-.48-.57-.73-.96-.73-.96l1.63-.45.04-.05-.15.23c-.18.3-.37.59-.57.88-.08.12-.15.23-.22.35M59.49,18.95l2.08-3.3-.16-.22-3.42.91c-.17.04-.32.07-.45.09-.12.02-.23.03-.32.02-.09,0-.17-.03-.24-.07-.1-.06-.18-.14-.25-.23l-.14.1c.05.07.11.14.16.2l.11.14c.08.1.16.2.24.31l.14.19c.06.09.13.18.2.27l.14-.11c-.06-.09-.15-.19-.15-.3,0-.11.07-.16.16-.19.05-.02.12-.04.21-.07.1-.03.22-.06.36-.1.14-.04.32-.09.51-.14.05.06.07.09.12.15l.16.21c.1.12.33.43.43.58.05.06.09.12.11.16l.03.04c-.08.12-.16.24-.24.36-.08.13-.16.25-.24.36-.07.11-.13.2-.19.28-.02.04-.05.08-.08.11-.01.01-.03.02-.05.01-.02,0-.04-.02-.07-.05-.03-.03-.07-.07-.11-.11l-.15-.2-.15.11c.08.1.16.2.24.3l.16.21c.09.11.18.22.26.34l.16.21c.07.1.15.2.22.3l.14-.11c-.05-.07-.1-.14-.14-.22-.02-.04-.02-.09-.02-.14,0-.05.02-.11.05-.17.03-.07.09-.15.15-.26M63.91,22.24c.35-.2.71-.39,1.08-.55-.11-.22-.18-.43-.26-.66-.18-.58-.41-1.06-.86-1.5-.23-.22-.48-.39-.76-.5-.27-.11-.56-.15-.86-.13-.59.04-1.24.37-1.63.83-.19.23-.32.48-.4.75-.07.28-.09.58-.04.89.06.44.25.9.5,1.27.07.11.14.21.21.31.07.1.14.2.2.29.07.09.13.17.19.26.37-.19.85-.45,1.27-.64.06-.03.11-.04.15-.04.04,0,.08.02.12.06.08.07.13.17.18.25l.16-.08c-.06-.1-.11-.2-.17-.31-.17-.3-.33-.62-.48-.93-.07-.14-.14-.29-.22-.44l-.16.08c.07.14.13.29.17.44.03.09.03.16.01.21-.01.05-.04.09-.1.12-.06.04-.13.09-.23.14l-.82.42c-.35-.26-.59-.75-.63-1.17-.02-.21,0-.42.08-.64.08-.21.21-.43.4-.63.36-.4,1.06-.77,1.6-.83.25-.03.48,0,.68.06.21.07.39.18.55.33.25.24.54.69.55,1.05,0,.15-.01.28-.06.41-.05.13-.11.25-.2.36-.1.13-.2.25-.31.36l.08.16ZM66,25.7c-.19.3-.63.5-.99.48-.11,0-.22-.03-.33-.08-.1-.05-.2-.12-.29-.22-.15-.17-.21-.4-.26-.62-.01-.06-.02-.12-.03-.18l1.79-.54s.03.06.04.09c.02.05.04.1.06.15.11.3.2.62,0,.91M66.44,25.73c.02-.41-.19-1-.33-1.39-.07-.24-.15-.48-.22-.72-.04-.14-.08-.27-.12-.41l-.17.05c.03.12.06.24.06.37,0,.08,0,.14-.03.18-.02.04-.06.08-.12.12-.06.03-.14.07-.25.1l-2.73.84c-.1.03-.19.05-.27.06-.14.01-.22-.05-.29-.16-.06-.11-.11-.23-.15-.34l-.17.05c.04.14.09.27.13.41l.09.29c.05.15.1.29.14.44l.08.26c.03.12.07.25.11.37l.17-.05c-.03-.11-.06-.23-.06-.35,0-.06.02-.11.04-.14.03-.03.07-.07.12-.09.44-.16.96-.3,1.38-.43,0,.03,0,.06.01.08,0,.04.02.09.03.13.01.03.02.08.03.11l.03.11-1.13,1.48c-.05.07-.09.13-.13.19-.03.07-.05.16-.05.26,0,.31.15.76.24,1.05l.17-.05c0-.07-.02-.14-.02-.21,0-.05,0-.1,0-.16,0-.05.02-.11.04-.17.01-.06.07-.16.16-.31.1-.14.22-.3.35-.48.14-.18.28-.36.42-.54.12-.15.24-.3.34-.43.08.14.18.25.3.35.06.05.12.1.19.14.07.05.15.08.24.11.09.03.18.04.27.04.25,0,.52-.1.71-.26.12-.09.22-.22.29-.37.07-.15.11-.33.11-.53M65.01,29.97l1.65.37.06-.02-.24.13c-.3.17-.6.35-.91.51-.13.07-.24.14-.36.2-.16-.73-.2-1.19-.2-1.19M64.28,32.48l3.38-1.93-.04-.27-3.45-.81c-.17-.04-.32-.09-.44-.13-.12-.04-.21-.08-.29-.13-.07-.05-.13-.11-.18-.18-.06-.1-.09-.21-.11-.32l-.17.03c.01.09.03.17.05.26l.03.18c.03.13.05.26.06.39l.04.24c.01.11.03.22.05.33l.18-.03c-.01-.11-.05-.24,0-.34.06-.1.14-.11.23-.09.05,0,.12.02.22.04.1.02.22.05.37.08.14.03.32.07.51.12.01.08.02.11.03.19l.04.26c.03.16.09.54.11.71.01.07.02.14.02.2v.04c-.12.07-.24.13-.37.2-.14.08-.26.15-.38.21-.11.06-.21.12-.3.16-.04.02-.08.05-.12.06-.02,0-.03,0-.05-.01-.01-.01-.03-.04-.04-.08-.01-.04-.03-.09-.04-.15l-.04-.25-.18.03c.02.13.04.25.07.38l.04.26c.03.14.05.28.07.43l.04.26c.01.12.03.25.05.37l.18-.03c0-.09-.02-.17-.02-.26,0-.05.02-.09.05-.13.03-.04.07-.08.13-.13.06-.04.15-.1.26-.16M67.49,35.95c-.23.24-.75.29-1.04.15-.1-.05-.18-.11-.25-.19-.07-.08-.12-.17-.15-.27-.07-.21-.06-.55-.04-.76h0s1.69.02,1.69.02v.07s.01.09.02.15c.02.3,0,.61-.22.84M65.65,35.85c-.06.15-.13.27-.22.36-.09.09-.19.16-.3.2-.24.1-.55.09-.79-.02-.23-.11-.37-.29-.43-.54-.05-.2-.07-.52.01-.71.04-.08.08-.14.14-.19.06-.04.14-.07.22-.09.09-.02.19-.02.3-.02l1.16.02c.02.28.01.73-.09.99M67.97,33.58h-.18c0,.12-.02.25-.05.37-.02.08-.05.13-.08.16-.03.03-.08.06-.15.07-.07.01-.16.02-.27.02l-2.86-.04c-.11,0-.2,0-.27-.03-.14-.03-.19-.11-.23-.24-.03-.12-.03-.25-.04-.37h-.18c0,.14,0,.29,0,.44v.31c0,.15,0,.31-.01.46v.26c0,.09,0,.17-.01.25v.2c0,.26.01.5.06.71.05.22.13.41.23.56.11.16.24.29.39.37.31.17.78.2,1.07,0,.14-.1.25-.21.34-.35.09-.13.15-.26.19-.4.01-.04.02-.08.03-.11,0,.01.01.03.02.04.05.1.12.19.2.29.08.1.19.18.3.25.26.15.64.15.89,0,.13-.07.24-.18.32-.31.08-.13.14-.28.18-.45.08-.33.07-.68.07-1.02,0-.16,0-.31,0-.47,0-.18,0-.36.01-.54,0-.14,0-.29.01-.43M69.69,35.19c0,19.06-15.45,34.5-34.5,34.5S.68,54.24.68,35.19,16.13.68,35.19.68s34.5,15.45,34.5,34.5M70.37,35.19C70.37,15.75,54.62,0,35.19,0S0,15.75,0,35.19s15.75,35.19,35.19,35.19,35.19-15.75,35.19-35.19"/>
  </g>
</svg>