<?xml version="1.0" encoding="UTF-8"?>
<svg id="Layer_2" data-name="Layer 2" xmlns="http://www.w3.org/2000/svg" viewBox="0 0 63.46 54.68">
  <defs>
    <style>
      .cls-1 {
        fill: #005880;
      }
    </style>
  </defs>
  <g id="Layer_1-2" data-name="Layer 1">
    <path class="cls-1" d="M58.25,2.34c-7.12-5.32-15.29-.76-19.02,5.72-5.03,8.69-1.48,15.74,1.95,24.49,3.01,9.23,3.12,16.19-8.17,16.25-8.31.04-13.76-7.25-13.58-14.95.04-2.07.65-4.49,1.44-7.05.02-.09.07-.16.09-.25.02-.09.07-.16.09-.25.27-.88.56-1.8.85-2.69C25.31,13.38,29.27,2.29,12.32,2.45c-16.77.18-18.14,35.07,6.71,26.87-.4,1.05-.79,2.04-1.12,2.92-2.24,5.9-2.78,11.05.5,16.59,4.92,8.28,18.59,7.34,23.48-.11,3.81-5.79,5.03-10.71,4-16.79,12.15-3.41,25.03-20.09,12.37-29.59ZM10.05,23.69c-2.58-.56-4.2-2.38-5.75-4.33-2.67-4.13-1.12-7.83,4.65-11.07,2.33-.36,4.55-.02,6.69,1.01,7.21,2.22,6.98,8.58,5.25,14.62-3.55.81-7.36.54-10.84-.23ZM44.56,26.72c-2.11-5.37-4.38-10.03-4.85-15.94-.54-6.4,9.95-4.47,12.66-3.75,3.93,1.01,6.04,4.09,7.48,7.57,3.48,8.51-10.01,12.32-15.29,12.12Z"/>
  </g>
</svg>